<?xml version="1.0" encoding="UTF-8"?>
<svg version="1.1" xmlns="http://www.w3.org/2000/svg" width="1254" height="1254">
<path d="M0 0 C413.82 0 827.64 0 1254 0 C1254 413.82 1254 827.64 1254 1254 C840.18 1254 426.36 1254 0 1254 C0 840.18 0 426.36 0 0 Z " fill="#FDFDFD" transform="translate(0,0)"/>
<path d="M0 0 C1.70865265 -0.00576172 1.70865265 -0.00576172 3.45182353 -0.01163983 C4.71412026 -0.01077335 5.97641699 -0.00990687 7.27696514 -0.00901413 C8.62333295 -0.01159653 9.96969999 -0.01460933 11.31606597 -0.01801753 C15.02948422 -0.02610801 18.74288317 -0.02787827 22.4563092 -0.028615 C26.45755305 -0.03046244 30.4587868 -0.03800908 34.46002483 -0.04475021 C43.22396939 -0.05835717 51.98790939 -0.06436432 60.75186276 -0.06876087 C66.2340236 -0.07152408 71.71618268 -0.07576204 77.19834232 -0.08026505 C92.39835817 -0.0924698 107.59837261 -0.10276086 122.79839325 -0.10614014 C123.77230703 -0.1063597 124.74622081 -0.10657927 125.74964712 -0.10680549 C126.72585039 -0.10702377 127.70205365 -0.10724204 128.70783883 -0.10746694 C130.68585225 -0.10791039 132.66386567 -0.10835696 134.64187908 -0.10880661 C135.62303457 -0.10902804 136.60419005 -0.10924947 137.61507752 -0.10947761 C153.44807003 -0.11340998 169.28101607 -0.13081053 185.1139907 -0.15416613 C201.39880459 -0.17799214 217.68359531 -0.19034738 233.96842688 -0.19150805 C243.09919997 -0.1924195 252.22991281 -0.19803482 261.36066914 -0.21632767 C269.1522175 -0.23188236 276.94368709 -0.23676079 284.73524807 -0.22858956 C288.69831046 -0.22473408 292.66121505 -0.22535505 296.62425709 -0.23964691 C316.17144655 -0.30606809 335.24857184 0.718597 354.66556072 3.13142776 C357.38956332 3.45237964 360.11382616 3.77101978 362.8381694 4.08906436 C427.62300589 12.22723828 490.26367151 44.88642439 531.55081463 95.89192581 C533.2336502 98.05904196 534.86488337 100.25817584 536.46780682 102.48494339 C537.73820108 104.23128234 539.05071105 105.93940892 540.37259197 107.64705276 C547.75046505 117.27974229 553.80130225 127.52415703 559.66556072 138.13142776 C560.032299 138.79046097 560.39903728 139.44949417 560.77688885 140.12849808 C565.85410442 149.27615688 569.81119013 158.38909138 573.27102947 168.25642776 C574.20188318 170.88283652 575.18600395 173.47997164 576.21634197 176.06892776 C579.34073959 183.97130392 581.60721101 191.53619199 583.02493572 199.92439651 C583.53706996 203.04389639 583.53706996 203.04389639 584.64993572 205.47127151 C586.1438706 209.38423172 586.59105566 213.37125395 587.16556072 217.50642776 C587.34151775 218.71492386 587.34151775 218.71492386 587.52102947 219.94783401 C587.77234492 221.69082828 588.01563822 223.43499115 588.25247478 225.18001175 C588.54373762 227.26102618 588.86062306 229.33853317 589.19583416 231.41292191 C590.71215212 241.348048 590.97338418 251.07407376 590.92630291 261.10872269 C590.91564302 263.79816464 590.92623004 266.4869286 590.93899822 269.17634964 C590.95553373 286.72573968 589.11873495 303.90198375 586.22586346 321.19710159 C585.85033806 323.46033685 585.49502646 325.72619907 585.1401701 327.99275589 C583.7493277 336.56674458 581.77747271 344.58469162 578.84256268 352.76399612 C577.61717878 356.26984969 576.6213092 359.7935885 575.66556072 363.38142776 C574.21689769 368.53222965 572.44629967 373.24186358 570.12649822 378.05720901 C569.01510825 380.39588257 567.96786724 382.73105297 566.95462322 385.11189651 C541.80361997 443.97076894 494.11940847 492.70325243 434.41946697 516.71736526 C429.40526553 518.65745641 424.3542713 520.47757781 419.27200603 522.23103714 C417.06808055 522.9923782 414.87811272 523.78206797 412.68899822 524.58455276 C403.86503419 527.62199572 394.79884399 529.48178678 385.66556072 531.31892776 C384.45053875 531.56924759 383.23551678 531.81956741 381.98367596 532.07747269 C363.72594318 535.58706872 345.36648887 536.2734228 326.82181072 536.36970901 C325.98797863 536.37434347 325.15414654 536.37897793 324.29504681 536.38375282 C316.48985355 536.42434291 308.68472611 536.44946187 300.87942791 536.43684769 C296.55911549 536.43093523 292.23944901 536.44951649 287.91926861 536.48273659 C286.30251658 536.49056542 284.68569173 536.48958861 283.06895733 536.47871208 C265.60181262 536.36598971 251.11257705 540.12594695 238.04056072 552.25642776 C224.36117425 566.58039266 222.06098366 583.28182416 222.21027088 602.17105484 C222.23248807 605.10652874 222.22833749 608.0409914 222.21779156 610.97652054 C222.19632201 618.25261068 222.21353918 625.52846145 222.23929119 632.80452347 C222.26071777 638.98823327 222.26263306 645.17128549 222.23637486 651.35498428 C222.23204242 654.23748095 222.2565894 657.11881354 222.28190899 660.00117874 C222.27663794 661.77181384 222.26991529 663.54244541 222.26150799 665.31306839 C222.27641781 666.10590225 222.29132763 666.89873611 222.30668926 667.71559525 C222.23391758 673.42000067 220.60787628 676.98694383 216.66556072 681.13142776 C211.73252271 684.59107536 207.20378471 684.54509433 201.39993572 684.45955276 C200.52532696 684.4576796 199.65071819 684.45580643 198.74960613 684.4538765 C196.91067951 684.44718112 195.07176652 684.43331696 193.23294353 684.41267776 C190.41086959 684.38137573 187.58935401 684.37168854 184.76712322 684.36580276 C182.97805387 684.3566379 181.18899022 684.34626378 179.39993572 684.33455276 C178.55412945 684.33030289 177.70832317 684.32605301 176.83688641 684.32167435 C170.90004722 684.24867101 170.90004722 684.24867101 168.66556072 683.13142776 C168.66556072 494.04142776 168.66556072 304.95142776 168.66556072 110.13142776 C162.79053332 114.0481127 156.99656814 117.98537333 151.29056072 122.13142776 C150.52163494 122.68830276 149.75270916 123.24517776 148.9604826 123.81892776 C142.54002077 128.47701181 136.15588173 133.18383239 129.77566814 137.89680862 C122.19045599 143.49477121 114.55042947 149.01497267 106.89944744 154.52254105 C103.15196303 157.22154894 99.40894872 159.9267427 95.66556072 162.63142776 C91.17945693 165.8727423 86.69251242 169.1128473 82.20071697 172.34627151 C71.29938186 180.19804083 60.44612009 188.11440151 49.66556072 196.13142776 C49.00090801 196.47373428 48.3362553 196.8160408 47.6514616 197.16872025 C45.15522955 198.62368003 43.48973441 199.87745664 41.66556072 202.13142776 C40.48631295 206.81997883 40.59219494 211.47670623 40.66556072 216.27986526 C40.65803546 217.66136835 40.64699553 219.04285636 40.63260174 220.42430496 C40.60425411 224.04490461 40.62339742 227.6637288 40.6526823 231.2842598 C40.67412814 234.9847338 40.65032012 238.68489235 40.63040447 242.38533401 C40.59801714 249.63447409 40.61583409 256.88233633 40.66556072 264.13142776 C45.37580841 261.98176118 50.08566681 259.83124454 54.79519939 257.68001175 C56.39015033 256.95160014 57.98519897 256.2234024 59.58035564 255.49544144 C61.13001191 254.78821248 62.67952178 254.08066267 64.2288847 253.37279129 C65.77280093 252.66752249 67.31709264 251.96307507 68.86175823 251.25944901 C72.59905853 249.55295066 76.32293974 247.82501892 80.02444744 246.0420723 C80.70780666 245.71505829 81.39116589 245.38804428 82.09523296 245.05112076 C83.94701841 244.16211879 85.79460405 243.2643836 87.64187908 242.36604691 C90.66556072 241.13142776 90.66556072 241.13142776 94.66556072 241.13142776 C94.71129312 297.27817358 94.746557 353.42491754 94.76769138 409.5716783 C94.77019293 416.19348284 94.77278156 422.81528734 94.775424 429.43709183 C94.77594862 430.75542832 94.77647325 432.07376481 94.77701376 433.4320509 C94.7856517 454.80580883 94.80150225 476.1795555 94.81986631 497.5533071 C94.83853941 519.46877658 94.84967195 541.38424044 94.85373771 563.29971755 C94.85648816 576.83338631 94.86518929 590.3670248 94.88139366 603.90068425 C94.8919286 613.16889388 94.89516931 622.43708775 94.89256348 631.70530294 C94.89127672 637.06037613 94.89331168 642.41539627 94.90397167 647.77046013 C94.91364546 652.66557853 94.91423421 657.5606078 94.90735851 662.45573016 C94.9065077 664.23368309 94.90909434 666.0116414 94.91532709 667.78958361 C94.92326609 670.19252447 94.9190809 672.59513667 94.91165638 674.99807167 C94.91691041 675.70033398 94.92216443 676.40259629 94.92757767 677.12613928 C94.89385232 681.90313617 94.89385232 681.90313617 92.66556072 684.13142776 C89.57458493 684.35677181 86.5715561 684.45656195 83.47757244 684.46956253 C82.52452724 684.48109863 81.57148205 684.49263474 80.58955669 684.50452042 C77.42477084 684.53893321 74.26018049 684.55735362 71.09524822 684.57283401 C69.47464174 684.58318837 69.47464174 684.58318837 67.82129574 684.59375191 C62.09978613 684.62963625 56.37837575 684.65314755 50.65677166 684.66682816 C44.75163882 684.68335438 38.84770813 684.74173431 32.94297886 684.80997181 C28.39953134 684.85480731 23.85637006 684.86832665 19.3127203 684.87344551 C17.13662729 684.88133292 14.96054328 684.90095938 12.78466702 684.93266869 C9.73214274 684.97420594 6.68262757 684.97126022 3.62991619 684.95784378 C2.73609737 684.97986862 1.84227856 685.00189346 0.92137432 685.02458572 C-5.20269334 684.93347941 -8.30822121 683.21918292 -12.73943615 679.02424908 C-15.62273114 675.60258669 -16.58440019 672.87988873 -16.58513761 668.41716117 C-16.59014464 667.46534363 -16.59515168 666.5135261 -16.60031044 665.53286561 C-16.59562811 664.48811096 -16.59094578 663.4433563 -16.58612156 662.36694241 C-16.58902844 661.25178595 -16.59193532 660.13662949 -16.59493029 658.98768041 C-16.60227993 655.2181749 -16.5952638 651.44882966 -16.58840656 647.6793251 C-16.58960018 644.96261513 -16.59380173 642.24591167 -16.59786105 639.52920467 C-16.60509824 633.60559725 -16.60485684 627.68202625 -16.59976673 621.75841713 C-16.59221807 612.94981181 -16.59606078 604.14123735 -16.60218335 595.33263225 C-16.61272974 579.60185124 -16.61179602 563.87108646 -16.60602552 548.1403039 C-16.60099971 534.37238284 -16.59967852 520.60446773 -16.60207081 506.83654594 C-16.60222358 505.92423425 -16.60237635 505.01192255 -16.60253375 504.07196505 C-16.6031564 500.3688107 -16.6037932 496.66565636 -16.60445328 492.96250203 C-16.61057551 458.20168494 -16.60501792 423.44087819 -16.59425948 388.6800627 C-16.5847702 357.78502064 -16.58561504 326.88999507 -16.59518147 295.99495316 C-16.60588751 261.30332731 -16.61013898 226.61171061 -16.60395694 191.92008334 C-16.60331548 188.22264119 -16.6026898 184.52519904 -16.60207081 180.82775688 C-16.60191265 179.91731868 -16.6017545 179.00688047 -16.60159155 178.06885323 C-16.59931504 164.31036307 -16.60198013 150.55187952 -16.60702991 136.79339027 C-16.61274296 121.14958387 -16.61133058 105.50579626 -16.60046843 89.8619922 C-16.59458752 81.10293158 -16.59422448 72.34391162 -16.60176078 63.58485203 C-16.60623759 57.7375122 -16.60346882 51.89020505 -16.59475124 46.04287007 C-16.58998355 42.70890833 -16.58948167 39.37509422 -16.5955632 36.04112455 C-16.60161039 32.45181656 -16.59544135 28.86273267 -16.58612156 25.27343655 C-16.59314506 23.71683981 -16.59314506 23.71683981 -16.60031044 22.12879667 C-16.53563667 9.73756241 -16.53563667 9.73756241 -12.67818928 5.17049026 C-12.06975178 4.70384964 -11.46131428 4.23720901 -10.83443928 3.75642776 C-9.92178303 3.0332637 -9.92178303 3.0332637 -8.99068928 2.29549026 C-5.84336886 0.08345846 -3.81832198 0.00481237 0 0 Z " fill="#023992" transform="translate(357.3344392776489,142.86857223510742)"/>
<path d="M0 0 C4.3584071 3.62886132 8.57559602 7.3692291 12.70703125 11.25390625 C13.35929688 11.83011719 14.0115625 12.40632813 14.68359375 13 C31.25178472 28.30682664 42.35599079 50.90197327 48.70703125 72.25390625 C49.00432129 73.25284912 49.00432129 73.25284912 49.30761719 74.27197266 C54.97080902 93.84484225 55.0199067 113.37158163 55.0078125 133.58984375 C55.0101321 135.62982909 55.01363655 137.66981021 55.01721925 139.70979369 C55.02823301 146.10602627 55.02879795 152.50220008 55.02270508 158.8984375 C55.01667005 165.43831085 55.02898316 171.9779688 55.05027515 178.51780546 C55.06803883 184.188051 55.07386961 189.8582289 55.0706374 195.52850115 C55.06884796 198.89081215 55.0725915 202.25284842 55.08535194 205.61515427 C55.1470486 224.13986156 54.37340856 241.89266742 49.01953125 259.75390625 C48.76534424 260.6164502 48.51115723 261.47899414 48.24926758 262.36767578 C37.16177221 298.73306764 14.64874549 327.94514618 -18.7265625 346.44140625 C-37.72329233 356.34088898 -58.05134323 360.63189938 -79.34838867 360.56958008 C-81.59278223 360.56642409 -83.83584645 360.58996868 -86.08007812 360.61523438 C-99.20596185 360.67352493 -111.84427477 358.89671603 -124.29296875 354.56640625 C-125.03442139 354.31221924 -125.77587402 354.05803223 -126.53979492 353.79614258 C-143.9844859 347.59915028 -158.92897418 338.05847779 -172.29296875 325.25390625 C-173.71029297 323.96613281 -173.71029297 323.96613281 -175.15625 322.65234375 C-200.2913 299.30708336 -215.11759419 261.54034737 -216.39518738 227.53302288 C-216.44375405 224.31667265 -216.46238201 221.10147649 -216.4699707 217.88476562 C-216.4765419 216.66393784 -216.4831131 215.44311005 -216.48988342 214.18528748 C-216.50954344 210.15607446 -216.52128398 206.1269012 -216.53125 202.09765625 C-216.53530493 200.69774864 -216.53942205 199.29784121 -216.54360008 197.89793396 C-216.56263437 191.30594198 -216.57686003 184.71396095 -216.58521205 178.12194681 C-216.59492947 170.58150562 -216.62111082 163.04136227 -216.66171294 155.50102568 C-216.6922025 149.63132127 -216.70671211 143.76170051 -216.70999306 137.89191866 C-216.71230968 134.40687047 -216.72081128 130.92214077 -216.74645424 127.43717957 C-216.89251219 106.50240117 -216.13783095 85.27095454 -208.66796875 65.44140625 C-208.32878418 64.50820557 -207.98959961 63.57500488 -207.64013672 62.61352539 C-194.51126514 27.71087967 -170.30119011 0.60652936 -136.6953125 -15.49609375 C-128.44694178 -19.21576487 -120.10852683 -21.75062034 -111.29296875 -23.74609375 C-110.01164063 -24.04644531 -108.7303125 -24.34679687 -107.41015625 -24.65625 C-70.73662148 -32.57683903 -29.46591109 -23.17770024 0 0 Z " fill="#FCFCFD" transform="translate(766.29296875,282.74609375)"/>
<path d="M0 0 C14.67402488 8.79211826 25.21098399 21.25778575 30.921875 37.42578125 C31.5901645 41.11016678 31.90687618 44.68357602 31.921875 48.42578125 C32.581875 48.42578125 33.241875 48.42578125 33.921875 48.42578125 C34.91606827 55.06677341 35.08844883 61.56681264 35.11474609 68.27587891 C35.12701233 70.02415733 35.12701233 70.02415733 35.13952637 71.80775452 C35.16426222 75.65177924 35.18087268 79.49576712 35.1953125 83.33984375 C35.2006824 84.67540871 35.2060599 86.01097364 35.21144485 87.34653854 C35.23305577 92.91587957 35.25177942 98.48521797 35.26306725 104.05459023 C35.27922218 111.96705996 35.31221213 119.87903228 35.36946809 127.79131472 C35.40856777 133.39092367 35.42774713 138.99040197 35.43298781 144.59014356 C35.43659083 147.91548522 35.45068482 151.23987732 35.48109055 154.56514359 C35.70767247 180.85996352 33.13505281 206.6610549 14.14331055 226.51831055 C2.03523697 238.41297069 -13.63287153 243.69747315 -30.35424805 243.67236328 C-47.09938323 243.41263846 -60.36314752 237.26342865 -72.078125 225.42578125 C-73.01591797 224.53826172 -73.01591797 224.53826172 -73.97265625 223.6328125 C-92.12772996 205.06791771 -92.82589561 177.82560081 -92.63671875 153.6484375 C-92.62985948 150.90180903 -92.62998826 148.15519004 -92.62965393 145.40855408 C-92.62506245 139.68750026 -92.60166232 133.96678482 -92.56518555 128.24584961 C-92.5233329 121.66492158 -92.50586045 115.08429606 -92.5025658 108.50324255 C-92.49894809 101.43606282 -92.48006912 94.36898894 -92.45544553 87.3018539 C-92.44926652 85.28899959 -92.44559955 83.27615336 -92.44241142 81.26329231 C-92.43330548 77.49578948 -92.41086338 73.72859867 -92.38452148 69.96118164 C-92.38385681 68.86533249 -92.38319214 67.76948334 -92.38250732 66.64042664 C-92.18024343 45.53616519 -86.05002266 24.78925162 -71.078125 9.42578125 C-63.49428187 2.59607378 -55.74195053 -1.44916348 -46.078125 -4.57421875 C-45.16546875 -4.93773437 -44.2528125 -5.30125 -43.3125 -5.67578125 C-29.01679674 -9.64680993 -12.96744506 -6.63182787 0 0 Z " fill="#093E9C" transform="translate(714.078125,331.57421875)"/>
<path d="M0 0 C18.4078125 -0.0928125 18.4078125 -0.0928125 37.1875 -0.1875 C41.03688232 -0.21481201 44.88626465 -0.24212402 48.85229492 -0.27026367 C53.61779785 -0.28381348 53.61779785 -0.28381348 55.86128235 -0.28633118 C57.40073767 -0.29088438 58.94018351 -0.30132185 60.47956848 -0.31672668 C78.70092401 -0.48967129 95.08090911 2.3267824 108.7421875 15.4609375 C119.18756867 27.20747342 121.78303895 40.93242153 121.28125 56.1875 C120.94195507 60.78683125 120.14204436 63.97457324 118 68 C117.58621094 68.93070313 117.17242187 69.86140625 116.74609375 70.8203125 C110.36326049 84.69906165 101.267203 92.34949112 87.31103516 98.10986328 C75.36501379 102.2529815 63.10442855 101.44088303 50.625 101.25 C48.32814063 101.22989762 46.03126421 101.21165349 43.734375 101.1953125 C38.15547622 101.15506071 32.5789874 101.0767164 27 101 C27 115.85 27 130.7 27 146 C18.09 146 9.18 146 0 146 C0 97.82 0 49.64 0 0 Z " fill="#071243" transform="translate(157,864)"/>
<path d="M0 0 C11.9625 -0.061875 23.925 -0.12375 36.25 -0.1875 C40.00407227 -0.21481201 43.75814453 -0.24212402 47.62597656 -0.27026367 C52.26904297 -0.28381348 52.26904297 -0.28381348 54.45404053 -0.28633118 C55.95520713 -0.2908881 57.4563639 -0.30133373 58.9574585 -0.31672668 C76.88232325 -0.49108261 92.45619557 2.78614576 105.8125 15.5859375 C109.27234961 19.40412868 111.7520325 23.37761682 114 28 C114.4125 28.80695312 114.825 29.61390625 115.25 30.4453125 C120.49185604 42.34869392 119.00656897 56.50300864 115.33203125 68.65625 C113.29661307 73.76568684 110.48805324 77.78655515 107 82 C106.56171875 82.62132812 106.1234375 83.24265625 105.671875 83.8828125 C98.54316211 93.45933644 86.82494434 98.43532951 75.41665649 100.65591431 C66.57105789 101.91535847 57.46970992 101.39293608 48.5625 101.25 C46.36655287 101.22989089 44.17058782 101.21164798 41.97460938 101.1953125 C36.64892347 101.15513381 31.3257799 101.07678337 26 101 C26 115.85 26 130.7 26 146 C17.42 146 8.84 146 0 146 C0 97.82 0 49.64 0 0 Z " fill="#0345C1" transform="translate(617,864)"/>
<path d="M0 0 C8.25 0 16.5 0 25 0 C25 48.51 25 97.02 25 147 C16.75 147 8.5 147 0 147 C-0.33 142.38 -0.66 137.76 -1 133 C-2.3303125 134.7634375 -2.3303125 134.7634375 -3.6875 136.5625 C-9.19197336 142.88870455 -17.58570773 147.95133449 -26 149 C-41.64577494 149.93936247 -54.54098632 148.3574933 -67 138 C-67.69738281 137.44957031 -68.39476562 136.89914062 -69.11328125 136.33203125 C-78.00027717 128.5149261 -84.17133722 115.16424107 -85.23144531 103.44042969 C-86.10036917 86.26247342 -84.32037096 72.65320228 -73 59 C-72.47792969 58.36578125 -71.95585937 57.7315625 -71.41796875 57.078125 C-64.23434167 49.17788306 -54.23487654 43.73612924 -43.57202148 42.78295898 C-26.87440908 42.00754779 -15.85359191 44.13970557 -3.25 55.58984375 C-2 57 -2 57 -2 59 C-1.34 59 -0.68 59 0 59 C0 39.53 0 20.06 0 0 Z " fill="#051957" transform="translate(568,863)"/>
<path d="M0 0 C10.39757748 7.60098767 17.24565507 18.41884486 20 31 C21.45179087 47.07667364 20.41187294 61.75916144 10.5625 75.0625 C9.39875914 76.39611153 8.21216013 77.71024021 7 79 C6.46761719 79.62132812 5.93523437 80.24265625 5.38671875 80.8828125 C-2.71373399 89.81457662 -15.37178632 95.34175596 -27.31762695 96.15844727 C-43.72296197 96.88719505 -56.60821969 95.33556489 -70 85 C-71.03125 84.2575 -72.0625 83.515 -73.125 82.75 C-80.4105148 75.78124671 -84.68758747 67.43261224 -88 58 C-88.2475 57.29746094 -88.495 56.59492187 -88.75 55.87109375 C-92.56523661 42.33230271 -90.70379349 28.82844143 -83.98339844 16.67578125 C-75.75981903 2.66221395 -63.408583 -5.66434354 -48 -10 C-31.5681879 -13.91975296 -13.56394613 -9.70027663 0 0 Z " fill="#05134B" transform="translate(450,916)"/>
<path d="M0 0 C1.09248047 0.76763672 1.09248047 0.76763672 2.20703125 1.55078125 C2.84253906 1.99035156 3.47804688 2.42992187 4.1328125 2.8828125 C14.28646221 10.6950441 19.16535241 23.30070821 21.20703125 35.55078125 C21.20703125 41.82078125 21.20703125 48.09078125 21.20703125 54.55078125 C-4.86296875 54.55078125 -30.93296875 54.55078125 -57.79296875 54.55078125 C-51.2496802 68.00208222 -51.2496802 68.00208222 -39.66796875 74.92578125 C-27.03055237 78.9835095 -16.38627056 75.97154012 -4.79296875 70.55078125 C-4.06207031 69.96941406 -3.33117188 69.38804687 -2.578125 68.7890625 C-0.79296875 67.55078125 -0.79296875 67.55078125 1.13012695 67.78027344 C3.57054404 68.68564035 4.54877881 69.66528167 6.22265625 71.640625 C6.75117187 72.26001953 7.2796875 72.87941406 7.82421875 73.51757812 C8.36304688 74.16791016 8.901875 74.81824219 9.45703125 75.48828125 C10.01132813 76.13474609 10.565625 76.78121094 11.13671875 77.44726562 C15.20703125 82.27449584 15.20703125 82.27449584 15.20703125 84.55078125 C-1.46626032 98.1597922 -20.02586616 99.8720047 -40.79296875 98.55078125 C-45.11264753 97.92680625 -48.90025575 96.51653665 -52.79296875 94.55078125 C-53.56898437 94.20015625 -54.345 93.84953125 -55.14453125 93.48828125 C-68.30703268 86.97487848 -77.08241636 75.72947404 -81.73046875 61.98828125 C-86.00101863 47.94037553 -85.06288622 33.83948221 -78.79296875 20.55078125 C-71.67125488 7.24044186 -61.1784513 -1.81534404 -46.79296875 -6.44921875 C-30.69915626 -11.10622175 -14.15607667 -9.21631486 0 0 Z " fill="#0565E1" transform="translate(1092.79296875,913.44921875)"/>
<path d="M0 0 C2.4375 0.875 2.4375 0.875 4.4375 3.875 C5.24550634 6.32829462 5.98728308 8.76617419 6.6875 11.25 C6.90365967 11.99822021 7.11981934 12.74644043 7.3425293 13.51733398 C8.52254566 17.61352625 9.67363287 21.71750309 10.81640625 25.82421875 C11.29330766 27.52891558 11.77118875 29.23333861 12.25 30.9375 C12.49226318 31.79988281 12.73452637 32.66226562 12.98413086 33.55078125 C15.31998496 41.72366446 18.0145964 49.76686113 20.80981445 57.79321289 C22.54489974 62.84714572 23.92569302 67.54924046 24.4375 72.875 C25.0975 72.875 25.7575 72.875 26.4375 72.875 C26.53949707 72.06256836 26.64149414 71.25013672 26.74658203 70.41308594 C27.57687034 66.16130564 28.96455169 62.30960576 30.4921875 58.265625 C30.79440216 57.45760437 31.09661682 56.64958374 31.4079895 55.81707764 C32.04564656 54.11834296 32.68623547 52.42070624 33.32958984 50.72412109 C34.31304895 48.1235484 35.27992446 45.51719404 36.24609375 42.91015625 C36.8687912 41.25743521 37.49245571 39.60507813 38.1171875 37.953125 C38.4047995 37.17294006 38.6924115 36.39275513 38.98873901 35.58892822 C41.09401146 30.10399236 41.09401146 30.10399236 44.4375 27.875 C46.94848633 28 46.94848633 28 49.4375 28.875 C50.9831543 30.625 50.9831543 30.625 52.26171875 32.875 C52.73287109 33.679375 53.20402344 34.48375 53.68945312 35.3125 C54.16318359 36.158125 54.63691406 37.00375 55.125 37.875 C56.08296658 39.54412637 57.0450074 41.21092309 58.01171875 42.875 C58.43026123 43.6175 58.84880371 44.36 59.2800293 45.125 C60.33031845 47.0294517 60.33031845 47.0294517 62.4375 47.875 C62.705625 47.276875 62.97375 46.67875 63.25 46.0625 C64.51135182 43.73895718 65.33074755 42.47153144 67.4375 40.875 C70.30366516 40.5007782 70.30366516 40.5007782 73.8996582 40.50268555 C74.56657055 40.49908303 75.23348289 40.49548052 75.92060471 40.49176884 C78.19339935 40.48364658 80.46552232 40.49765739 82.73828125 40.51171875 C84.40750679 40.51151688 86.07673249 40.5101983 87.74595642 40.50787354 C92.41864914 40.50617929 97.0910612 40.52548828 101.76368713 40.54899216 C104.756566 40.5625297 107.74940669 40.57043266 110.74230957 40.57644653 C155.05929978 40.66855173 199.37443457 41.25346814 243.6875 41.8125 C244.98288909 41.82878991 244.98288909 41.82878991 246.30444765 41.84540892 C269.36464271 42.1355592 292.42441295 42.44728764 315.48355103 42.81252289 C318.04561528 42.85300656 320.60768766 42.89298114 323.16976929 42.93235016 C329.52206902 43.03031108 335.87403603 43.13687159 342.22582245 43.26403999 C343.99381491 43.29838025 345.76187004 43.32965983 347.52997589 43.3575573 C349.86110571 43.39523849 352.191648 43.44481769 354.52246094 43.49829102 C355.77895447 43.52294937 357.035448 43.54760773 358.33001709 43.57301331 C361.32183509 43.86375963 362.85505974 44.47189685 365.4375 45.875 C364.86807489 45.88438567 364.29864979 45.89377134 363.71196938 45.90344143 C349.62719774 46.13570379 335.54245593 46.36971251 321.45774269 46.60549068 C314.64550692 46.71948861 307.83326329 46.83296282 301.02099609 46.94506836 C293.13115717 47.0750281 285.24134939 47.20676353 277.3515625 47.33984375 C275.38850505 47.37283569 275.38850505 47.37283569 273.38578987 47.40649414 C258.68358533 47.65531261 243.98436714 47.9447573 229.28534508 48.33809471 C212.56230396 48.78457991 195.84178066 48.9846596 179.11377358 49.11177784 C173.97335558 49.15119257 168.83301886 49.1965958 163.69268799 49.24604797 C162.59795375 49.25654829 162.59795375 49.25654829 161.48110366 49.26726073 C158.51229044 49.29587819 155.54347993 49.32473113 152.57467604 49.35430086 C144.21053713 49.43756226 135.84665231 49.50872372 127.48217773 49.54736328 C120.7108528 49.57872991 113.94022574 49.63447721 107.16934842 49.71898496 C103.62101637 49.76237507 100.073545 49.79379783 96.52492714 49.79506302 C92.60743118 49.79672633 88.69171351 49.85237373 84.7746582 49.91259766 C83.6221608 49.90456116 82.46966339 49.89652466 81.28224182 49.88824463 C75.78718451 50.01690307 72.36051024 50.27836888 68.35392761 54.24765015 C67.36257544 55.4410675 66.38913737 56.64967946 65.4375 57.875 C63.90756702 59.60170937 63.90756702 59.60170937 62.4375 60.875 C60 60.875 60 60.875 57.4375 59.875 C54.61658202 56.96308466 52.54928496 53.55310965 50.30859375 50.1875 C49.50119751 48.97513672 49.50119751 48.97513672 48.67749023 47.73828125 C48.26829346 47.12339844 47.85909668 46.50851562 47.4375 45.875 C45.93374797 49.74855383 44.43488116 53.62397917 42.9375 57.5 C42.48624756 58.66595703 42.03499512 59.83191406 41.57006836 61.03320312 C39.34516171 66.80957636 37.15999228 72.59308928 35.09765625 78.4296875 C34.741875 79.43435059 34.38609375 80.43901367 34.01953125 81.47412109 C33.35053742 83.37761361 32.69007934 85.28413209 32.0390625 87.19384766 C31.73871094 88.04769043 31.43835938 88.9015332 31.12890625 89.78125 C30.87310791 90.52697266 30.61730957 91.27269531 30.35375977 92.04101562 C29.4375 93.875 29.4375 93.875 26.4375 95.875 C24 96.0625 24 96.0625 21.4375 94.875 C18.28498695 89.45916324 16.58673624 83.39345827 15 77.375 C11.84592205 65.88412306 8.23179025 54.54252264 4.625 43.1875 C4.32860626 42.25180176 4.03221252 41.31610352 3.72683716 40.35205078 C2.87606333 37.66759453 2.02262662 34.98400317 1.16796875 32.30078125 C0.90778961 31.48084183 0.64761047 30.6609024 0.37954712 29.81611633 C-0.88690407 25.76534768 -0.88690407 25.76534768 -2.5625 21.875 C-3.69918497 24.22858351 -4.83364643 26.58320694 -5.96582031 28.93896484 C-6.95449007 30.99535857 -7.94607187 33.05035457 -8.94042969 35.10400391 C-11.50989831 40.44467629 -13.98582154 45.7976649 -16.2734375 51.265625 C-16.70156738 52.27093262 -17.12969727 53.27624023 -17.57080078 54.31201172 C-18.38632574 56.24162779 -19.17978085 58.18074997 -19.94873047 60.12939453 C-21.00001719 62.5905781 -21.95099963 64.73770352 -23.5625 66.875 C-27.359375 67.9765625 -27.359375 67.9765625 -30.5625 67.875 C-34.96044917 61.07816946 -38.77965273 54.02643461 -42.5625 46.875 C-43.17344513 47.36332306 -43.78439026 47.85164612 -44.41384888 48.35476685 C-48.93806081 50.53914889 -52.97977402 50.26263646 -57.94091797 50.19873047 C-58.99261295 50.19692905 -60.04430794 50.19512764 -61.12787247 50.19327164 C-64.64538691 50.18294104 -68.16231928 50.15033623 -71.6796875 50.1171875 C-74.19090285 50.10399236 -76.70212362 50.09179735 -79.21334839 50.08053589 C-86.64295003 50.04083504 -94.07205405 49.97341321 -101.50134087 49.89631462 C-103.53873608 49.87524574 -105.57613703 49.85484783 -107.61354065 49.83460999 C-127.16065759 49.63890234 -146.70644138 49.36627288 -166.25222397 49.06748581 C-170.75476927 48.99875432 -175.25734175 48.93191838 -179.75991821 48.86526489 C-216.35928092 48.32220824 -252.95710649 47.72412067 -289.55086517 46.87508392 C-292.2216603 46.8131571 -294.89247587 46.75217248 -297.56329346 46.69122314 C-301.67323585 46.59672428 -305.7830552 46.49800748 -309.8928051 46.39548302 C-311.34493731 46.35947647 -312.79709134 46.32433528 -314.24926949 46.2902317 C-323.71239664 46.06550424 -333.12427321 45.57248622 -342.5625 44.875 C-342.5625 44.545 -342.5625 44.215 -342.5625 43.875 C-313.29554339 42.79434451 -284.014433 42.40354627 -254.73229963 41.97175717 C-249.64952266 41.896519 -244.56680342 41.81797793 -239.48410034 41.73791504 C-207.60501954 41.2366278 -175.72986917 40.82406919 -143.84664726 40.74598694 C-139.47645052 40.73504208 -135.10627809 40.71949765 -130.73609924 40.70300293 C-128.59779404 40.69514447 -126.45948862 40.68734674 -124.32118309 40.67957973 C-122.91416459 40.67445856 -121.50714632 40.66927413 -120.10012829 40.66402531 C-111.87359043 40.63398138 -103.64754567 40.62414621 -95.42097759 40.6459806 C-89.68640712 40.65974188 -83.95221339 40.6438836 -78.21770096 40.61756134 C-75.87446723 40.61216928 -73.53118206 40.61729092 -71.18799973 40.6337204 C-67.99577099 40.65513848 -64.80568948 40.64008008 -61.61352539 40.61621094 C-60.68941203 40.63156891 -59.76529867 40.64692688 -58.81318188 40.66275024 C-53.99787188 40.58557914 -51.31663549 40.10652416 -47.66331482 36.84796143 C-47.14683097 36.30135487 -46.63034712 35.75474831 -46.09821224 35.19157791 C-44.5625 33.875 -44.5625 33.875 -40.8984375 33.56640625 C-36.5422648 35.27520936 -35.15494768 37.79396819 -33.1875 41.8125 C-32.84589844 42.45896484 -32.50429688 43.10542969 -32.15234375 43.77148438 C-31.26500554 45.46023278 -30.41149616 47.16665408 -29.5625 48.875 C-29.2325 49.535 -28.9025 50.195 -28.5625 50.875 C-28.15290039 49.99231445 -27.74330078 49.10962891 -27.32128906 48.20019531 C-23.06324173 39.04029269 -18.74962376 29.90827849 -14.36328125 20.80908203 C-13.65301976 19.33278107 -12.94540519 17.85520418 -12.24023438 16.37646484 C-11.20261431 14.20116172 -10.15692915 12.02990821 -9.109375 9.859375 C-8.79683777 9.20007996 -8.48430054 8.54078491 -8.16229248 7.86151123 C-4.24029717 -0.20684376 -4.24029717 -0.20684376 0 0 Z " fill="#0A47BF" transform="translate(618.5625,1025.125)"/>
<path d="M0 0 C8.25 0 16.5 0 25 0 C25.01458252 1.8257959 25.02916504 3.6515918 25.04418945 5.53271484 C25.09606566 11.59973004 25.1614105 17.66648643 25.23571491 23.73326683 C25.2802335 27.40760432 25.31952884 31.08183565 25.34643555 34.75634766 C25.37265531 38.30976969 25.4131852 41.86277904 25.46318626 45.41594315 C25.48772061 47.41525117 25.49785115 49.41471948 25.50764465 51.41415405 C25.64248824 59.86501512 25.88109647 68.14240879 31.375 74.9375 C36.50501201 78.96822372 40.17292486 80.5602905 46.75 80.5 C47.45938721 80.49500488 48.16877441 80.49000977 48.8996582 80.48486328 C56.83759543 80.22168713 61.23269923 77.58682464 66.875 72.3125 C72.28421791 63.88048385 72.46131847 54.88928238 72.51171875 45.1171875 C72.53864555 43.17406174 72.53864555 43.17406174 72.56611633 41.19168091 C72.61320323 37.78223627 72.64327736 34.37285582 72.66955566 30.9631958 C72.69957239 27.47012743 72.74587274 23.97727523 72.79101562 20.484375 C72.87808857 13.65623587 72.93838533 6.82860533 73 0 C81.58 0 90.16 0 99 0 C99 33.66 99 67.32 99 102 C90.42 102 81.84 102 73 102 C72.67 98.04 72.34 94.08 72 90 C71.030625 91.051875 70.06125 92.10375 69.0625 93.1875 C61.4579098 100.77672739 52.46734976 104.19138471 41.78027344 104.38037109 C26.02952748 104.34774243 26.02952748 104.34774243 19 100 C17.95005859 99.36384766 17.95005859 99.36384766 16.87890625 98.71484375 C8.80417392 93.23501595 3.00492883 85.60823585 1 76 C-0.30081007 68.14620058 -0.12655467 60.27932677 -0.09765625 52.34375 C-0.0957883 50.83060757 -0.09436618 49.31746454 -0.09336853 47.80432129 C-0.08957306 43.84568577 -0.07976854 39.88708766 -0.06866455 35.9284668 C-0.05838618 31.87939968 -0.05385721 27.83032644 -0.04882812 23.78125 C-0.03814325 15.85414769 -0.02057092 7.92708283 0 0 Z " fill="#054DC8" transform="translate(748,908)"/>
<path d="M0 0 C-1.81366403 4.12764916 -4.49146618 7.62059205 -7.125 11.25 C-7.59292969 11.8996875 -8.06085938 12.549375 -8.54296875 13.21875 C-9.69274282 14.81435483 -10.84602566 16.40743025 -12 18 C-12.52851562 17.73316406 -13.05703125 17.46632813 -13.6015625 17.19140625 C-16.51326627 15.74503874 -19.43752808 14.33091617 -22.375 12.9375 C-23.47585938 12.41027344 -24.57671875 11.88304687 -25.7109375 11.33984375 C-33.33462437 8.23423259 -42.7435278 7.55504281 -50.5625 10.375 C-53.97808544 11.75337037 -53.97808544 11.75337037 -56 14 C-56.56507117 18.08061989 -56.56507117 18.08061989 -56 22 C-52.54369814 25.23101775 -49.73849071 26.63766406 -45.140625 27.6328125 C-44.02429688 27.88160156 -42.90796875 28.13039063 -41.7578125 28.38671875 C-40.60023438 28.63035156 -39.44265625 28.87398437 -38.25 29.125 C-37.10789062 29.37636719 -35.96578125 29.62773438 -34.7890625 29.88671875 C-28.58930518 31.24959875 -28.58930518 31.24959875 -22.36816406 32.50976562 C-13.17543086 34.34600736 -5.31382787 39.19531531 0 47 C2.79255948 51.68605103 3.46637708 55.57163452 3.375 60.9375 C3.38660156 61.61490234 3.39820313 62.29230469 3.41015625 62.99023438 C3.36055663 71.61230122 -0.71629151 78.95057873 -6.75 85 C-20.32636861 95.69139028 -37.53138464 95.60973381 -54 94 C-64.97771409 92.28337162 -77.40110887 87.33101021 -85 79 C-83.25477062 74.94785821 -80.5771843 71.69396039 -77.875 68.25 C-77.40707031 67.64800781 -76.93914063 67.04601562 -76.45703125 66.42578125 C-75.30774993 64.94813384 -74.15428765 63.47373995 -73 62 C-68.78376898 62.77692347 -66.10033453 64.92405725 -62.70703125 67.4296875 C-55.65805671 71.51870303 -48.86070517 72.48466517 -40.8125 72.375 C-39.51795898 72.39240234 -39.51795898 72.39240234 -38.19726562 72.41015625 C-32.06112504 72.38198728 -27.51085434 71.51085434 -23 67 C-22.52786327 62.93904042 -22.52786327 62.93904042 -23 59 C-28.92483226 53.18695703 -39.11343602 51.99759595 -47 51.0625 C-58.9020509 49.53829526 -68.92789708 45.23621381 -77.3125 36.625 C-82.35267077 28.78473436 -83.085338 21.18919505 -82 12 C-79.26998468 3.05768316 -73.40638735 -3.39389455 -65.25 -7.75 C-43.25938679 -17.72478414 -19.49200329 -13.84958128 0 0 Z " fill="#055BD7" transform="translate(995,918)"/>
<path d="M0 0 C8.25 0 16.5 0 25 0 C25 48.84 25 97.68 25 148 C16.75 148 8.5 148 0 148 C0 99.16 0 50.32 0 0 Z " fill="#0159D9" transform="translate(870,861)"/>
<path d="M0 0 C0 8.25 0 16.5 0 25 C-2.475 25.0825 -4.95 25.165 -7.5 25.25 C-13.94911924 25.58150588 -18.50507128 26.37127348 -24 30 C-24.886875 30.53625 -25.77375 31.0725 -26.6875 31.625 C-32.09701967 37.1807229 -35.0846002 44.80672669 -35.20532227 52.48120117 C-35.22526749 53.60213669 -35.24521271 54.7230722 -35.26576233 55.87797546 C-35.28247482 57.08742325 -35.29918732 58.29687103 -35.31640625 59.54296875 C-35.33718735 60.78170242 -35.35796844 62.0204361 -35.37937927 63.29670715 C-35.43371797 66.58625256 -35.48395951 69.87582726 -35.53222656 73.16546631 C-35.58250646 76.52377804 -35.63810675 79.88200138 -35.69335938 83.24023438 C-35.80133512 89.82675504 -35.9004266 96.41332545 -36 103 C-44.25 103 -52.5 103 -61 103 C-61 69.67 -61 36.34 -61 2 C-52.75 2 -44.5 2 -36 2 C-35.505 8.93 -35.505 8.93 -35 16 C-34.01 14.80375 -33.02 13.6075 -32 12.375 C-22.44552658 1.5106391 -14.28227625 -0.29447992 0 0 Z " fill="#041043" transform="translate(354,906)"/>
<path d="M0 0 C10.7971875 -0.12375 10.7971875 -0.12375 21.8125 -0.25 C24.06167236 -0.28641602 26.31084473 -0.32283203 28.62817383 -0.36035156 C49.96472335 -0.56186984 49.96472335 -0.56186984 59.375 6.1875 C65.02003112 12.23574763 67.31972217 17.03387981 67.625 25.4375 C67.3081852 33.98293709 65.05129663 40.41709706 58.8125 46.375 C51.19709338 52.01609187 43.49191081 53.59765386 34.1796875 53.390625 C33.30513916 53.38659668 32.43059082 53.38256836 31.52954102 53.37841797 C28.31114246 53.35773525 25.09304664 53.30189287 21.875 53.25 C14.65625 53.1675 7.4375 53.085 0 53 C0 35.51 0 18.02 0 0 Z " fill="#FBFBFB" transform="translate(184,888)"/>
<path d="M0 0 C10.580625 -0.12375 10.580625 -0.12375 21.375 -0.25 C23.58106934 -0.28641602 25.78713867 -0.32283203 28.06005859 -0.36035156 C29.83950838 -0.37205119 31.61896901 -0.38223998 33.3984375 -0.390625 C34.29731689 -0.41108887 35.19619629 -0.43155273 36.12231445 -0.45263672 C44.17189818 -0.45699845 50.60478557 1.75787726 57.3125 6.1875 C62.450404 11.56437628 65.28618151 16.3761005 65.5 23.9375 C65.0791836 32.42935907 63.45795088 39.9710747 57.23510742 46.11743164 C46.68019457 55.00753902 33.69223207 53.58835488 20.75 53.3125 C10.47875 53.1578125 10.47875 53.1578125 0 53 C0 35.51 0 18.02 0 0 Z " fill="#FAFBFD" transform="translate(643,888)"/>
<path d="M0 0 C7.02658123 6.04218096 10.45842221 12.15918636 11.30859375 21.328125 C11.66009334 31.17011364 10.00902139 38.57405352 3.8125 46.3125 C-2.40937136 52.92240205 -9.67883075 56.02958311 -18.6875 56.3125 C-27.38172475 56.1833139 -34.06668639 52.69010236 -40.3125 46.796875 C-47.62997108 39.00512339 -48.54757171 31.46400744 -48.31640625 21.25 C-47.89285535 13.21139382 -44.83272957 6.57913263 -39 1 C-26.32820844 -7.88698253 -13.12747578 -8.99852359 0 0 Z " fill="#FAFAFB" transform="translate(434,934)"/>
<path d="M0 0 C1.8827357 1.45333984 3.39816925 2.9645388 4.96875 4.75 C5.54882812 5.39066406 6.12890625 6.03132812 6.7265625 6.69140625 C12.66092368 14.62688923 12.12046542 24.3028506 10.96875 33.75 C9.16177369 41.71760315 3.39418576 48.53333255 -3.21875 53.1875 C-10.74376385 57.36806325 -21.958382 57.16229658 -30.16015625 54.87890625 C-35.72329143 52.28843872 -39.54386905 48.75514476 -43.03125 43.75 C-43.60875 42.925 -44.18625 42.1 -44.78125 41.25 C-48.79398489 33.22453021 -49.54998369 23.86131162 -47.37890625 15.125 C-43.77820651 6.22369935 -36.99774912 -0.40880994 -28.40625 -4.5 C-18.32817559 -6.73957209 -8.82922322 -5.43336814 0 0 Z " fill="#F9F9FB" transform="translate(556.03125,933.25)"/>
<path d="M0 0 C0.66 0 1.32 0 2 0 C2.0457324 56.14674581 2.08099628 112.29348978 2.10213066 168.44025054 C2.10463221 175.06205508 2.10722084 181.68385958 2.10986328 188.30566406 C2.1103879 189.62400056 2.11091252 190.94233705 2.11145304 192.30062313 C2.12009098 213.67438106 2.13594153 235.04812774 2.15430559 256.42187934 C2.17297869 278.33734882 2.18411122 300.25281267 2.18817699 322.16828978 C2.19092744 335.70195854 2.19962857 349.23559704 2.21583293 362.76925649 C2.22636788 372.03746611 2.22960859 381.30565999 2.22700275 390.57387517 C2.225716 395.92894836 2.22775096 401.2839685 2.23841095 406.63903236 C2.24808474 411.53415077 2.24867349 416.42918004 2.24179779 421.32430239 C2.24094698 423.10225532 2.24353362 424.88021363 2.24976636 426.65815584 C2.25770537 429.06109671 2.25352017 431.46370891 2.24609566 433.86664391 C2.25134968 434.56890622 2.25660371 435.27116853 2.26201695 435.99471152 C2.2282916 440.7717084 2.2282916 440.7717084 0 443 C-0.99 442.67 -1.98 442.34 -3 442 C-2.34 442 -1.68 442 -1 442 C-1.00037972 441.07721986 -1.00075944 440.15443972 -1.00115067 439.20369655 C-1.02355226 384.54969029 -1.04067898 329.89568446 -1.05106533 275.24167453 C-1.05231608 268.68382142 -1.0536104 262.12596833 -1.05493164 255.56811523 C-1.05519395 254.26252813 -1.05545626 252.95694103 -1.05572652 251.61179068 C-1.06008149 230.45345924 -1.06796809 209.29513051 -1.0771528 188.13680068 C-1.08649414 166.43714859 -1.09205663 144.73749791 -1.09408849 123.03784388 C-1.09546272 109.64085081 -1.09980791 96.24386539 -1.10791647 82.84687468 C-1.11318984 73.66835164 -1.11480294 64.48983257 -1.11350138 55.31130812 C-1.11285893 50.01056096 -1.11386506 44.70982721 -1.11920547 39.40908241 C-1.12405524 34.56008882 -1.12432818 29.7111177 -1.12089889 24.86212309 C-1.12047476 23.10430641 -1.1217572 21.34648836 -1.12488318 19.5886744 C-1.12887571 17.2057652 -1.12674544 14.82293795 -1.12304783 12.4400301 C-1.12567484 11.75206621 -1.12830186 11.06410232 -1.13100848 10.35529104 C-1.11839965 6.77770221 -0.84190983 3.48009714 0 0 Z " fill="#1C285D" transform="translate(450,384)"/>
<path d="M0 0 C5.61408204 3.73564628 11.36359434 9.27255453 13 16 C13 17.65 13 19.3 13 21 C-4.82 21 -22.64 21 -41 21 C-39.82277727 12.75944088 -37.15410608 8.68802692 -31.125 3.1875 C-22.34095434 -2.96133196 -9.89508254 -5.02391841 0 0 Z " fill="#F1F7FC" transform="translate(1076,929)"/>
<path d="M0 0 C0 0.33 0 0.66 0 1 C-15.84 1.495 -15.84 1.495 -32 2 C-31.67 2.99 -31.34 3.98 -31 5 C-33.76878464 7.76878464 -41.25251472 6.45254504 -45.125 6.5625 C-45.83299744 6.58301422 -46.54099487 6.60352844 -47.27044678 6.62466431 C-82.54813302 7.61271919 -117.80199336 6.94218106 -153.07552338 6.12982559 C-155.01979687 6.08506566 -156.96407686 6.04058727 -158.90836334 5.99639511 C-164.51888571 5.86883775 -170.12928569 5.73720679 -175.7395668 5.59943008 C-177.46576746 5.55733092 -179.19199145 5.51617549 -180.91823959 5.4760704 C-191.30403736 5.23275185 -201.64005867 4.78863585 -212 4 C-212 3.67 -212 3.34 -212 3 C-191.36027998 2.32257146 -170.7265862 1.79661169 -150.07742214 1.49474788 C-147.27654148 1.45349895 -144.47568615 1.41064141 -141.67482877 1.36784559 C-135.02706705 1.26630902 -128.37927114 1.16731025 -121.73144531 1.07006836 C-115.76525333 0.98275943 -109.79911371 0.89256491 -103.83300781 0.79956055 C-69.22090363 0.26049857 -34.61754284 -0.16854142 0 0 Z " fill="#113EAB" transform="translate(488,1066)"/>
<path d="M0 0 C0.33 0 0.66 0 1 0 C1 59.4 1 118.8 1 180 C1.66 180 2.32 180 3 180 C3 246.66 3 313.32 3 382 C5.64 382.33 8.28 382.66 11 383 C11 383.33 11 383.66 11 384 C9.35425434 384.02688151 7.70838587 384.04634123 6.0625 384.0625 C5.14597656 384.07410156 4.22945312 384.08570313 3.28515625 384.09765625 C1 384 1 384 0 383 C-0.09786111 380.96710717 -0.12371229 378.93074605 -0.12304783 376.89549923 C-0.12420167 376.24769826 -0.12535552 375.5998973 -0.12654433 374.932466 C-0.12921729 372.73481376 -0.1246833 370.53723297 -0.12025452 368.33958435 C-0.12069008 366.75892258 -0.12156471 365.17826088 -0.12284368 363.59759957 C-0.12509157 359.23304702 -0.12106337 354.86851876 -0.11606562 350.50396931 C-0.11176549 345.80523815 -0.11320723 341.10650846 -0.1139679 336.40777588 C-0.11449341 328.25992442 -0.11134375 320.11208094 -0.10573006 311.96423149 C-0.09761876 300.18366561 -0.09500022 288.40310361 -0.09374207 276.62253524 C-0.09155096 257.51145685 -0.0848893 238.40038272 -0.07543945 219.28930664 C-0.06626684 200.7196454 -0.05918527 182.14998531 -0.05493164 163.58032227 C-0.05466892 162.43656568 -0.05440619 161.2928091 -0.05413551 160.11439323 C-0.05283051 154.37676458 -0.0515668 148.63913592 -0.05032361 142.90150726 C-0.03994918 95.26766856 -0.02232928 47.63383449 0 0 Z " fill="#04195D" transform="translate(527,443)"/>
<path d="M0 0 C1.143479 -0.00262848 1.143479 -0.00262848 2.31005859 -0.00531006 C4.84059924 -0.00971869 7.3710699 -0.00678327 9.90161133 -0.00341797 C11.69956983 -0.00409382 13.49752825 -0.00506618 15.29548645 -0.00631714 C19.09104266 -0.00779484 22.88657542 -0.0056465 26.68212891 -0.00097656 C31.40887872 0.0045715 36.13557047 0.00142822 40.86231804 -0.00439835 C59.9242042 -0.02452042 78.98375802 0.07029936 98.04216957 0.45633316 C99.89793491 0.4933021 101.75376265 0.52727156 103.60964012 0.55810165 C106.17123201 0.60217272 108.73221354 0.65896935 111.29345703 0.71972656 C112.0491353 0.73088627 112.80481358 0.74204597 113.58339119 0.75354385 C117.28873666 0.85691812 120.14394127 1.08150433 123.29614258 3.12939453 C90.87639034 3.99441205 58.47560959 4.22101844 26.04614258 4.19189453 C25.08619888 4.19103851 24.12625519 4.1901825 23.13722229 4.18930054 C11.19017724 4.17785996 -0.75684088 4.15771139 -12.70385742 4.12939453 C-12.70385742 3.13939453 -12.70385742 2.14939453 -12.70385742 1.12939453 C-8.45739232 0.09452631 -4.3446757 -0.01237194 0 0 Z " fill="#0C42B0" transform="translate(860.703857421875,1067.87060546875)"/>
<path d="M0 0 C0.66 0 1.32 0 2 0 C2.13055753 18.18464918 2.26095186 36.36929952 2.39115143 54.55395126 C2.45160795 62.99723109 2.51211805 71.44051052 2.57275391 79.88378906 C2.62559862 87.24220271 2.67834318 94.60061707 2.73096704 101.9590323 C2.75883913 105.85590559 2.78676166 109.7527785 2.81480408 113.64965057 C2.84119244 117.31688857 2.86744698 120.9841275 2.89359856 124.65136719 C2.90781582 126.64015775 2.92217527 128.6289473 2.9365387 130.61773682 C2.94495285 131.80121704 2.953367 132.98469727 2.96203613 134.20404053 C2.96941048 135.2327615 2.97678482 136.26148247 2.98438263 137.3213768 C2.99736206 139.54755278 3 141.77378618 3 144 C2.01 144.33 1.02 144.66 0 145 C0 97.15 0 49.3 0 0 Z " fill="#060C39" transform="translate(158,864)"/>
<path d="M0 0 C1.00160156 0.00531738 2.00320313 0.01063477 3.03515625 0.01611328 C13.63598203 0.15066746 23.60204709 1.28756355 33.8125 4.25 C35.47499486 4.58398334 37.14152436 4.8989269 38.8125 5.1875 C43.14277118 6.03274813 46.79562846 7.38007704 50.8125 9.25 C52.87259162 10.10995899 54.93530487 10.96365315 57 11.8125 C60.33564814 13.1870097 63.60826564 14.59052779 66.8125 16.25 C66.8125 16.91 66.8125 17.57 66.8125 18.25 C68.4625 18.58 70.1125 18.91 71.8125 19.25 C71.8125 19.91 71.8125 20.57 71.8125 21.25 C72.52792969 21.33378906 73.24335937 21.41757812 73.98046875 21.50390625 C77.43829976 22.41486587 79.36806363 23.92885435 82.125 26.1875 C83.44951172 27.25291016 83.44951172 27.25291016 84.80078125 28.33984375 C85.46464844 28.97019531 86.12851562 29.60054688 86.8125 30.25 C86.8125 30.91 86.8125 31.57 86.8125 32.25 C87.50214844 32.45109375 88.19179688 32.6521875 88.90234375 32.859375 C92.82495132 34.73380224 95.36906303 37.40758614 98.375 40.5 C98.93896484 41.06074219 99.50292969 41.62148438 100.08398438 42.19921875 C108.8125 51.04003107 108.8125 51.04003107 108.8125 55.25 C109.4725 55.58 110.1325 55.91 110.8125 56.25 C111.4725 57.24 112.1325 58.23 112.8125 59.25 C111.8225 59.25 110.8325 59.25 109.8125 59.25 C108.213119 57.3683753 106.79682078 55.50923572 105.375 53.5 C85.37869747 26.55504699 54.86796394 9.50167763 21.8125 4.25 C7.66184528 2.28695338 -7.03408167 2.44256038 -21.1875 4.25 C-21.1875 3.59 -21.1875 2.93 -21.1875 2.25 C-14.05431487 0.54556768 -7.32367369 -0.0705151 0 0 Z " fill="#166CDC" transform="translate(684.1875,253.75)"/>
<path d="M0 0 C2.01609311 7.59912018 3.60893062 15.26511665 5 23 C5.14115234 23.74443359 5.28230469 24.48886719 5.42773438 25.25585938 C7.98350451 39.19116714 8.29457198 53.06380767 8.3125 67.1875 C8.31599457 68.06725494 8.31948914 68.94700989 8.3230896 69.85342407 C8.34474183 79.69052416 8.02210784 89.44082405 7.10546875 99.23828125 C7.02823074 100.10341843 6.95099274 100.9685556 6.87141418 101.85990906 C6.65751097 103.91601887 6.33896178 105.96077292 6 108 C5.01 108.495 5.01 108.495 4 109 C3.67 106.03 3.34 103.06 3 100 C3.66 100 4.32 100 5 100 C4.98259766 98.64455078 4.98259766 98.64455078 4.96484375 97.26171875 C4.95582031 96.08222656 4.94679688 94.90273438 4.9375 93.6875 C4.92589844 92.51574219 4.91429687 91.34398437 4.90234375 90.13671875 C5 87 5 87 6 84 C5.67150804 82.11250866 5.67150804 82.11250866 5.0625 80 C2.28300663 67.135453 3.91068667 53.01340395 5 40 C4.67 40 4.34 40 4 40 C3.92483154 39.4423999 3.84966309 38.8847998 3.7722168 38.31030273 C1.52841581 19.4173894 1.52841581 19.4173894 -3 1 C-1 0 -1 0 0 0 Z " fill="#71B4F6" transform="translate(940,340)"/>
<path d="M0 0 C1.68687172 -0.00618599 1.68687172 -0.00618599 3.40782166 -0.01249695 C5.25172234 0.00368179 5.25172234 0.00368179 7.13287354 0.02018738 C9.07958702 0.01953026 9.07958702 0.01953026 11.06562805 0.01885986 C14.62118766 0.01799919 18.1764436 0.03563628 21.73193264 0.05658174 C25.44883624 0.07533672 29.16574681 0.07709804 32.88269043 0.08065796 C39.91977706 0.08998191 46.95672385 0.11460036 53.9937489 0.14470643 C62.00576138 0.1782396 70.01778053 0.19473371 78.02984571 0.20979273 C94.5099082 0.24114966 110.98983005 0.29391689 127.4697876 0.36076355 C127.4697876 0.69076355 127.4697876 1.02076355 127.4697876 1.36076355 C112.38070945 2.14887502 97.32894954 2.50447186 82.2202282 2.52942848 C77.49278802 2.53929243 72.76546965 2.5651628 68.03808689 2.58974743 C59.29259457 2.63495909 50.54717843 2.67322118 41.80157471 2.68669128 C35.66059372 2.69675908 29.51996401 2.72601318 23.37912178 2.76801109 C21.05355034 2.78030125 18.72792943 2.78544599 16.40232658 2.78321266 C13.16783514 2.78086473 9.93436555 2.80297459 6.70001221 2.83073425 C5.74783813 2.82413284 4.79566406 2.81753143 3.81463623 2.81072998 C-2.00172569 2.8927864 -4.96611071 3.74917296 -9.5302124 7.36076355 C-10.1902124 7.36076355 -10.8502124 7.36076355 -11.5302124 7.36076355 C-9.19051449 1.70649359 -6.01574643 -0.0170257 0 0 Z " fill="#051E67" transform="translate(355.53021240234375,143.6392364501953)"/>
<path d="M0 0 C15.84 0 31.68 0 48 0 C48 0.99 48 1.98 48 3 C53.94 3 59.88 3 66 3 C66 3.33 66 3.66 66 4 C37.95 4 9.9 4 -19 4 C-19 3.67 -19 3.34 -19 3 C-13.06 2.67 -7.12 2.34 -1 2 C-0.67 1.34 -0.34 0.68 0 0 Z " fill="#063FB1" transform="translate(800,1069)"/>
<path d="M0 0 C20.15612908 -0.1064296 40.30929523 -0.09836733 60.46221924 0.31838989 C62.31725833 0.35605927 64.17236642 0.39047513 66.02752686 0.42160034 C68.62804331 0.46657405 71.22795636 0.52431796 73.828125 0.5859375 C74.98488235 0.60327187 74.98488235 0.60327187 76.16500854 0.62095642 C80.00691773 0.72801534 82.65388766 1.14755391 86 3 C78.94235458 3.14512279 71.88465163 3.28716794 64.8269043 3.42724609 C62.43463801 3.47506895 60.04238481 3.52355196 57.65014648 3.57275391 C46.19219894 3.80801032 34.73400979 4.04298961 23.2734375 4.0859375 C22.53526291 4.09137573 21.79708832 4.09681396 21.0365448 4.10241699 C14.64277339 4.10427744 8.19871769 3.65435299 2 2 C1.34 1.34 0.68 0.68 0 0 Z " fill="#2154C0" transform="translate(898,1068)"/>
<path d="M0 0 C0.33 0 0.66 0 1 0 C0.98512107 12.6569197 0.94350874 25.31344356 0.86790943 37.97015476 C0.83364111 43.84742381 0.80852962 49.72443296 0.80444336 55.60180664 C0.80016019 61.2754684 0.77169498 66.94854386 0.72656822 72.62202263 C0.71359397 74.78487672 0.70928526 76.94780097 0.71384621 79.11068916 C0.7187525 82.14417698 0.69265709 85.17595148 0.65942383 88.20922852 C0.66804947 89.10043396 0.67667511 89.9916394 0.68556213 90.90985107 C0.57090092 97.16670519 -0.8881004 100.26181202 -5 105 C-7.0625 106.5 -7.0625 106.5 -9 107 C-11.25 106.625 -11.25 106.625 -13 106 C-12.071875 105.566875 -11.14375 105.13375 -10.1875 104.6875 C-6.11957679 102.53389359 -4.45535272 101.36605815 -3 97 C-2.89008743 94.26940194 -2.83548524 91.56298811 -2.82641602 88.83178711 C-2.819729 87.99885132 -2.81304199 87.16591553 -2.80615234 86.30773926 C-2.79209884 84.49731345 -2.78020574 82.68686989 -2.77020454 80.87641716 C-2.75377468 78.00434371 -2.73053218 75.13240009 -2.70530701 72.26039124 C-2.63461271 64.09366357 -2.57463058 55.92688091 -2.52319336 47.76000977 C-2.49124728 42.76384842 -2.44992546 37.76783343 -2.40299797 32.77179146 C-2.3870623 30.87377136 -2.3747022 28.97571753 -2.36609077 27.07765007 C-2.28192206 8.77903749 -2.28192206 8.77903749 0 0 Z " fill="#0F1D5A" transform="translate(579,719)"/>
<path d="M0 0 C0.66 0 1.32 0 2 0 C1.8052885 7.52294428 -0.19413303 14.07287239 -2.67578125 21.125 C-3.9584398 24.79026338 -4.99237004 28.49914889 -6 32.25 C-7.44866303 37.40080189 -9.21926105 42.11043582 -11.5390625 46.92578125 C-12.65045247 49.2644548 -13.69769348 51.59962521 -14.7109375 53.98046875 C-22.02882673 71.10272291 -30.68780092 87.17881075 -42 102 C-42.33 101.01 -42.66 100.02 -43 99 C-42.34 99 -41.68 99 -41 99 C-40.855625 98.38125 -40.71125 97.7625 -40.5625 97.125 C-40 95 -40 95 -39 93 C-38.34 93 -37.68 93 -37 93 C-37.061875 92.236875 -37.12375 91.47375 -37.1875 90.6875 C-37 88 -37 88 -35.625 86.1875 C-34 85 -34 85 -32 85 C-31.855625 84.21625 -31.71125 83.4325 -31.5625 82.625 C-31 80 -31 80 -30 78 C-29.34 78 -28.68 78 -28 78 C-27.5359375 76.329375 -27.5359375 76.329375 -27.0625 74.625 C-26 71 -26 71 -25 69 C-24.34 69 -23.68 69 -23 69 C-22.89300781 68.29101562 -22.78601563 67.58203125 -22.67578125 66.8515625 C-21.92481251 63.68273486 -20.71650567 61.24720812 -19.1875 58.375 C-16.28075464 52.70719342 -14.06813995 47.01324725 -12 41 C-11.33446744 39.22874012 -10.66778671 37.45791127 -10 35.6875 C-7.64540283 29.22626287 -5.83315901 22.62401996 -4 16 C-3.33743646 13.66547178 -2.66902026 11.33269009 -2 9 C-1.34 9 -0.68 9 0 9 C-0.185625 8.443125 -0.37125 7.88625 -0.5625 7.3125 C-1.07551165 4.600867 -0.6640724 2.65628961 0 0 Z " fill="#106CE1" transform="translate(939,474)"/>
<path d="M0 0 C11.72042734 11.18768064 19.76378401 26.82102686 27.375 41 C27.69670166 41.5986084 28.01840332 42.1972168 28.34985352 42.81396484 C31.53075066 48.83605983 34.06863713 55.01434614 36.3125 61.4375 C37.69110394 65.36798783 39.09276549 69.27377699 40.62109375 73.1484375 C43.3457194 80.08849112 45.73060787 86.45702028 46 94 C45.34 94 44.68 94 44 94 C43.8453125 92.453125 43.8453125 92.453125 43.6875 90.875 C42.99839535 86.99095561 41.80682712 84.46910807 40 81 C39.70222656 79.95328125 39.40445313 78.9065625 39.09765625 77.828125 C37.70282677 72.96359513 35.88194243 68.31653233 34.03515625 63.609375 C32.87732307 60.59786802 32 58.25620387 32 55 C31.34 55 30.68 55 30 55 C29.5875 53.865625 29.175 52.73125 28.75 51.5625 C25.7541846 43.61941867 22.17310844 36.30791165 17.75 29.0625 C16.8450001 27.57662236 15.94375359 26.08844998 15.046875 24.59765625 C14.65338867 23.95320557 14.25990234 23.30875488 13.85449219 22.64477539 C13 21 13 21 13 19 C12.01 18.67 11.02 18.34 10 18 C9.0348659 16.10301228 8.07793998 14.20090151 7.18359375 12.26953125 C5.53440682 9.10722892 3.402133 6.43532368 1.171875 3.6640625 C0 2 0 2 0 0 Z " fill="#1F81F0" transform="translate(893,246)"/>
<path d="M0 0 C0 0.33 0 0.66 0 1 C-0.79172607 1.02505615 -1.58345215 1.0501123 -2.39916992 1.07592773 C-5.99543363 1.19215729 -9.5914528 1.31476176 -13.1875 1.4375 C-15.05631836 1.49647461 -15.05631836 1.49647461 -16.96289062 1.55664062 C-18.7659668 1.61948242 -18.7659668 1.61948242 -20.60546875 1.68359375 C-22.26292114 1.73858032 -22.26292114 1.73858032 -23.95385742 1.79467773 C-26.90424645 1.92081069 -26.90424645 1.92081069 -29.3633728 2.50474548 C-32.05248095 3.00985783 -34.4984066 3.12695962 -37.23217773 3.12939453 C-38.76949806 3.13406235 -38.76949806 3.13406235 -40.33787537 3.13882446 C-41.99400597 3.13584854 -41.99400597 3.13584854 -43.68359375 3.1328125 C-44.8400087 3.13413177 -45.99642365 3.13545105 -47.18788147 3.1368103 C-50.93778174 3.13872385 -54.68760736 3.13240425 -58.4375 3.125 C-59.70255371 3.12411377 -60.96760742 3.12322754 -62.27099609 3.12231445 C-80.86482805 3.10692417 -99.42620368 2.91410307 -118 2 C-118 1.67 -118 1.34 -118 1 C-106.7709197 0.82730792 -95.54175477 0.66092689 -84.3125 0.5 C-83.48398151 0.48812275 -82.65546303 0.4762455 -81.80183792 0.46400833 C-54.53292791 0.07511573 -27.27206705 -0.14560036 0 0 Z " fill="#2D60C6" transform="translate(488,1066)"/>
<path d="M0 0 C8.25 0 16.5 0 25 0 C25 36.96 25 73.92 25 112 C24.67 112 24.34 112 24 112 C23.98969254 110.88579681 23.97938507 109.77159363 23.96876526 108.62362671 C23.87096594 98.11811474 23.76822573 87.61266114 23.66066074 77.10724449 C23.60552041 71.70644505 23.55211475 66.30564012 23.50268555 60.90478516 C23.45491073 55.69169119 23.40256343 50.47866127 23.34705925 45.26564407 C23.32669505 43.27778343 23.30797236 41.28990526 23.29092598 39.3020134 C23.26675025 36.51556832 23.23671414 33.72924294 23.20532227 30.94287109 C23.19668907 29.71287888 23.19668907 29.71287888 23.18788147 28.45803833 C23.1333482 24.1933349 22.77102567 20.20819781 22 16 C22.15625 13.3671875 22.15625 13.3671875 22.5 10.875 C22.95662144 7.54373904 22.88884492 5.22929959 22 2 C19.04142591 1.94620774 16.08382279 1.90642907 13.125 1.875 C12.28324219 1.85824219 11.44148437 1.84148438 10.57421875 1.82421875 C9.36572266 1.81455078 9.36572266 1.81455078 8.1328125 1.8046875 C7.38918457 1.79421387 6.64555664 1.78374023 5.87939453 1.77294922 C3.75509765 1.8334403 3.75509765 1.8334403 2 4 C1.62904292 6.42246595 1.62904292 6.42246595 1.5859375 9.2265625 C1.54726563 10.2578125 1.50859375 11.2890625 1.46875 12.3515625 C1.4378125 13.43179688 1.406875 14.51203125 1.375 15.625 C1.33632813 16.71296875 1.29765625 17.8009375 1.2578125 18.921875 C1.16333753 21.61441165 1.07777569 24.30693757 1 27 C0.67 27 0.34 27 0 27 C0 18.09 0 9.18 0 0 Z " fill="#056CE5" transform="translate(870,861)"/>
<path d="M0 0 C17.16 0 34.32 0 52 0 C52 0.99 52 1.98 52 3 C25.66572537 4.10300627 -0.64641249 4.10986295 -27 4 C-27 3.67 -27 3.34 -27 3 C-18.42 2.67 -9.84 2.34 -1 2 C-0.67 1.34 -0.34 0.68 0 0 Z " fill="#1D4EB2" transform="translate(404,1069)"/>
<path d="M0 0 C0.99 0 1.98 0 3 0 C3.04641767 9.65787439 3.08191706 19.31571015 3.10362434 28.97367191 C3.11404472 33.45864373 3.12817196 37.94353902 3.15087891 42.4284668 C3.17266964 46.75972174 3.18458176 51.09090324 3.18975449 55.42220879 C3.19343907 57.07154941 3.2006341 58.72088618 3.21146011 60.37019539 C3.22605798 62.68706965 3.2279745 65.00364351 3.22705078 67.32055664 C3.231492 68.6373793 3.23593323 69.95420197 3.24050903 71.31092834 C2.9852577 75.2261262 2.21123236 78.28937993 1 82 C0.67 82 0.34 82 0 82 C0 54.94 0 27.88 0 0 Z " fill="#041453" transform="translate(341,437)"/>
<path d="M0 0 C0.33 0 0.66 0 1 0 C1 47.85 1 95.7 1 145 C-6.59 145 -14.18 145 -22 145 C-22 144.67 -22 144.34 -22 144 C-19.77100213 143.83109082 -17.54179338 143.66496313 -15.3125 143.5 C-14.07113281 143.4071875 -12.82976563 143.314375 -11.55078125 143.21875 C-8.68500671 143.04220063 -5.86900043 142.95611472 -3 143 C-2.67 142.34 -2.34 141.68 -2 141 C-1.34 141 -0.68 141 0 141 C0 94.47 0 47.94 0 0 Z " fill="#010E4C" transform="translate(591,864)"/>
<path d="M0 0 C0.33 0 0.66 0 1 0 C1 14.52 1 29.04 1 44 C-7.58 44 -16.16 44 -25 44 C-25 34.43 -25 24.86 -25 15 C-24.01 15 -23.02 15 -22 15 C-21.97285265 17.22909871 -21.95353746 19.45829367 -21.9375 21.6875 C-21.92589844 22.92886719 -21.91429687 24.17023437 -21.90234375 25.44921875 C-21.98544638 28.47083034 -22.35948549 31.0651835 -23 34 C-22.78282648 36.20800528 -22.78282648 36.20800528 -22 38 C-21.34 38.33 -20.68 38.66 -20 39 C-20 39.66 -20 40.32 -20 41 C-14.06 41.33 -8.12 41.66 -2 42 C-0.69079497 38.0723849 -0.76537132 34.27429369 -0.68359375 30.17578125 C-0.66281265 29.31438034 -0.64203156 28.45297943 -0.62062073 27.56547546 C-0.55525091 24.81456456 -0.49629868 22.06355844 -0.4375 19.3125 C-0.39430283 17.44725579 -0.35068815 15.5820212 -0.30664062 13.71679688 C-0.19958237 9.14462876 -0.09827946 4.5723649 0 0 Z " fill="#133DAC" transform="translate(642,966)"/>
<path d="M0 0 C7.59 0 15.18 0 23 0 C23 4.95 23 9.9 23 15 C22.67 15 22.34 15 22 15 C22 10.38 22 5.76 22 1 C15.07 1 8.14 1 1 1 C1 33.34 1 65.68 1 99 C6.94 98.67 12.88 98.34 19 98 C19.33 97.34 19.66 96.68 20 96 C20.99 96 21.98 96 23 96 C23.33 97.32 23.66 98.64 24 100 C16.08 100 8.16 100 0 100 C0 67 0 34 0 0 Z " fill="#010333" transform="translate(294,909)"/>
<path d="M0 0 C2.05056738 -0.00161768 4.10112363 -0.00517968 6.15168762 -0.00918579 C10.04106326 -0.01616896 13.93039784 -0.01358659 17.81977844 -0.00942993 C18.99867142 -0.01141388 20.17756439 -0.01339783 21.3921814 -0.01544189 C22.48437485 -0.01233002 23.5765683 -0.00921814 24.70185852 -0.00601196 C25.65409805 -0.00521637 26.60633759 -0.00442078 27.58743286 -0.00360107 C30.23110715 0.12306443 32.66085165 0.53489421 35.23774719 1.12338257 C34.90774719 1.78338257 34.57774719 2.44338257 34.23774719 3.12338257 C30.40969331 3.19054141 26.89998143 3.22908806 23.11151123 2.62437439 C18.99250409 2.09166541 14.96720393 1.99002053 10.82392883 2.00985718 C10.01336029 2.00971115 9.20279175 2.00956512 8.36766052 2.00941467 C5.7110468 2.01010663 3.05450479 2.01786518 0.39790344 2.02572632 C-1.45297202 2.02759305 -3.30384798 2.02901575 -5.15472412 2.03001404 C-10.00934734 2.03381913 -14.86394031 2.04363215 -19.71855164 2.05471802 C-24.67907807 2.06497543 -29.63960943 2.06952092 -34.60014343 2.07455444 C-44.3208598 2.08525632 -54.04155378 2.10230848 -63.76225281 2.12338257 C-63.76225281 1.79338257 -63.76225281 1.46338257 -63.76225281 1.12338257 C-42.51212122 0.22400735 -21.2667716 0.01107686 0 0 Z " fill="#0C51B5" transform="translate(662.7622528076172,143.87661743164063)"/>
<path d="M0 0 C23.76 0.33 47.52 0.66 72 1 C72 1.33 72 1.66 72 2 C70.71905457 2.00213753 70.71905457 2.00213753 69.41223145 2.00431824 C61.2936377 2.02228062 53.17557957 2.06428079 45.05724335 2.13209057 C40.88525966 2.16612199 36.71363286 2.19143286 32.54150391 2.19555664 C28.5016375 2.19989156 24.46257291 2.22877437 20.42295837 2.27343178 C18.89555057 2.28624339 17.36804598 2.29077377 15.84059143 2.28615379 C2.11229981 2.25435575 -11.19382708 4.275964 -22.3984375 12.86328125 C-24 14 -24 14 -26 14 C-26 13.34 -26 12.68 -26 12 C-24.01310269 10.64721885 -22.01254782 9.31431695 -20 8 C-19.67 7.34 -19.34 6.68 -19 6 C-16.41796875 4.96484375 -16.41796875 4.96484375 -13.1875 3.9375 C-12.12917969 3.59589844 -11.07085938 3.25429688 -9.98046875 2.90234375 C-8.99691406 2.60457031 -8.01335938 2.30679688 -7 2 C-5.91138672 1.66162109 -5.91138672 1.66162109 -4.80078125 1.31640625 C-3 1 -3 1 0 2 C0 1.34 0 0.68 0 0 Z " fill="#001165" transform="translate(624,677)"/>
<path d="M0 0 C1.30904297 -0.00386719 2.61808594 -0.00773438 3.96679688 -0.01171875 C5.22169922 -0.01042969 6.47660156 -0.00914062 7.76953125 -0.0078125 C9.47459839 -0.00612061 9.47459839 -0.00612061 11.21411133 -0.00439453 C13.74629191 0.10579971 15.76618272 0.46409537 18.1875 1.125 C20.10790756 1.04185386 22.02623231 0.89227868 23.9375 0.6875 C24.92234375 0.58566406 25.9071875 0.48382812 26.921875 0.37890625 C27.66953125 0.29511719 28.4171875 0.21132813 29.1875 0.125 C29.1875 0.785 29.1875 1.445 29.1875 2.125 C25.73821641 2.90573228 22.56375112 3.24747152 19.0300293 3.23852539 C18.02936935 3.23844986 17.02870941 3.23837433 15.99772644 3.23829651 C14.9298439 3.23313522 13.86196136 3.22797394 12.76171875 3.22265625 C11.65899124 3.2212413 10.55626373 3.21982635 9.42012024 3.21836853 C5.90505233 3.21278004 2.39004859 3.20022959 -1.125 3.1875 C-3.51106679 3.18248352 -5.89713457 3.17792087 -8.28320312 3.17382812 C-14.1263239 3.16281437 -19.96940737 3.14608764 -25.8125 3.125 C-20.46916635 -2.21833365 -7.06397547 -0.02118134 0 0 Z " fill="#083CB1" transform="translate(668.8125,960.875)"/>
<path d="M0 0 C0.33 0 0.66 0 1 0 C2.66348989 43.35249306 2.66348989 43.35249306 1 52 C1.66 52.33 2.32 52.66 3 53 C3.33 53.66 3.66 54.32 4 55 C5.12019531 54.98839844 6.24039063 54.97679687 7.39453125 54.96484375 C8.86718583 54.95546378 10.33984222 54.9463638 11.8125 54.9375 C12.55048828 54.92912109 13.28847656 54.92074219 14.04882812 54.91210938 C17.29922068 54.89740172 19.89404895 54.96468298 23 56 C23 47.75 23 39.5 23 31 C23.33 31 23.66 31 24 31 C24 39.58 24 48.16 24 57 C16.08 57 8.16 57 0 57 C0 38.19 0 19.38 0 0 Z " fill="#0C46CB" transform="translate(870,952)"/>
<path d="M0 0 C0 1.65 0 3.3 0 5 C-2.475 4.505 -2.475 4.505 -5 4 C-5.33 4.66 -5.66 5.32 -6 6 C-7.33002531 6.34629691 -8.66430408 6.67626353 -10 7 C-13.01498062 8.44030411 -15.96589944 9.98480955 -18.9296875 11.52734375 C-21.91238137 12.95797427 -24.86119877 13.9704732 -28 15 C-29.68328265 15.77749183 -31.35120432 16.58932145 -33 17.4375 C-33.8559375 17.87320312 -34.711875 18.30890625 -35.59375 18.7578125 C-37.56327255 19.77454654 -39.53178144 20.79324396 -41.5 21.8125 C-44 23 -44 23 -46 23 C-45 20 -45 20 -42.33886719 18.46948242 C-41.17000977 17.93685791 -40.00115234 17.4042334 -38.796875 16.85546875 C-37.84642303 16.41706413 -37.84642303 16.41706413 -36.87677002 15.96980286 C-34.83886027 15.0325197 -32.79471109 14.10983726 -30.75 13.1875 C-29.41883132 12.57843365 -28.08809699 11.96841702 -26.7578125 11.35742188 C-24.12864199 10.15134066 -21.49628286 8.95266472 -18.86132812 7.75927734 C-16.29437097 6.59454357 -13.73657792 5.41258788 -11.18554688 4.21337891 C-10.01572266 3.66472168 -8.84589844 3.11606445 -7.640625 2.55078125 C-6.59938477 2.05876221 -5.55814453 1.56674316 -4.48535156 1.05981445 C-2 0 -2 0 0 0 Z " fill="#1A2D6A" transform="translate(450,384)"/>
<path d="M0 0 C8.25 0 16.5 0 25 0 C25.11692961 14.03155361 24.67094205 27.98516261 24 42 C23.67 42 23.34 42 23 42 C22.97518181 37.26774472 22.95708417 32.53552779 22.94506836 27.80322266 C22.94005625 26.19514302 22.93324481 24.5870679 22.92456055 22.97900391 C22.91235774 20.66047039 22.90674036 18.34199741 22.90234375 16.0234375 C22.89718246 15.31069672 22.89202118 14.59795593 22.88670349 13.86361694 C22.88624217 9.70886831 23.30694769 6.15831387 24 2 C17.07 2 10.14 2 3 2 C3 2.66 3 3.32 3 4 C2.34 4 1.68 4 1 4 C0.67 4.66 0.34 5.32 0 6 C0 4.02 0 2.04 0 0 Z " fill="#0F5CDD" transform="translate(821,908)"/>
<path d="M0 0 C1.32 0.33 2.64 0.66 4 1 C3.34 1.66 2.68 2.32 2 3 C1.81161646 6.01330006 1.74835557 8.93405043 1.77294922 11.94775391 C1.77265717 12.87463516 1.77236511 13.80151642 1.77206421 14.75648499 C1.77346111 17.82993834 1.78903925 20.90315133 1.8046875 23.9765625 C1.80841635 26.10362618 1.81126392 28.23069156 1.81326294 30.35775757 C1.82090948 35.96379312 1.84056673 41.5697255 1.8626709 47.17572021 C1.88310736 52.89317428 1.89225994 58.61064496 1.90234375 64.328125 C1.92381166 75.55212873 1.9579599 86.7760558 2 98 C1.34 98 0.68 98 0 98 C0 65.66 0 33.32 0 0 Z " fill="#0C1844" transform="translate(295,910)"/>
<path d="M0 0 C18.73973145 1.00826013 36.84648269 4.34666679 55 9 C54.67 9.66 54.34 10.32 54 11 C43.55905512 9.56692913 43.55905512 9.56692913 39.25 8 C35.80799982 6.94092302 32.62435711 6.54852072 29.05078125 6.24609375 C27 6 27 6 24 5 C22.21167134 4.80068163 20.41913062 4.63763194 18.625 4.5 C15.00259512 4.22058585 11.55537236 3.74021687 8 3 C6.7625 2.855625 5.525 2.71125 4.25 2.5625 C2.64125 2.2840625 2.64125 2.2840625 1 2 C0.67 1.34 0.34 0.68 0 0 Z " fill="#0C5CCD" transform="translate(699,145)"/>
<path d="M0 0 C1.00160156 0.00531738 2.00320313 0.01063477 3.03515625 0.01611328 C13.63246786 0.15062286 23.60739749 1.27786548 33.8125 4.25 C35.62000322 4.64838846 37.43224004 5.0263885 39.25 5.375 C40.54744141 5.62636719 40.54744141 5.62636719 41.87109375 5.8828125 C42.51175781 6.00398438 43.15242187 6.12515625 43.8125 6.25 C43.8125 6.91 43.8125 7.57 43.8125 8.25 C36.93790758 7.64696558 30.30885748 6.39737724 23.55859375 4.96875 C15.57906853 3.4377462 7.9841086 3.09476094 -0.125 3.125 C-1.15818359 3.12113281 -2.19136719 3.11726563 -3.25585938 3.11328125 C-9.31569654 3.12095679 -15.17884574 3.46054178 -21.1875 4.25 C-21.1875 3.59 -21.1875 2.93 -21.1875 2.25 C-14.05431487 0.54556768 -7.32367369 -0.0705151 0 0 Z " fill="#0D54C3" transform="translate(684.1875,253.75)"/>
<path d="M0 0 C0 0.33 0 0.66 0 1 C-21.75210167 2.71481082 -43.21412112 3.8740541 -65 2 C-65 1.67 -65 1.34 -65 1 C-43.32370283 0.21085518 -21.69066084 -0.14260068 0 0 Z " fill="#395CC3" transform="translate(341,1068)"/>
<path d="M0 0 C1 3 1 3 -0.25 5.5625 C-2 8 -2 8 -5 10 C-5.44085937 10.74507812 -5.88171875 11.49015625 -6.3359375 12.2578125 C-8.35302342 15.58174282 -10.86977086 18.17009468 -13.625 20.875 C-14.41861938 21.65846802 -14.41861938 21.65846802 -15.22827148 22.45776367 C-24.58583779 31.57267938 -24.58583779 31.57267938 -29 34 C-29.99 33.67 -30.98 33.34 -32 33 C-31.154375 32.29875 -30.30875 31.5975 -29.4375 30.875 C-18.17394938 21.483162 -8.9004666 11.64914011 0 0 Z " fill="#1859BF" transform="translate(795,586)"/>
<path d="M0 0 C-0.33 0.66 -0.66 1.32 -1 2 C-6.46672442 3.13805916 -11.86810662 3.13190078 -17.43359375 3.09765625 C-18.7504995 3.09553383 -18.7504995 3.09553383 -20.0940094 3.09336853 C-22.87520882 3.08780821 -25.65632526 3.07526321 -28.4375 3.0625 C-30.33268112 3.05747987 -32.22786352 3.05291786 -34.12304688 3.04882812 C-38.74872948 3.0378518 -43.37435071 3.02061482 -48 3 C-48 2.67 -48 2.34 -48 2 C-31.98232016 0.75423568 -16.07128217 -0.3602529 0 0 Z " fill="#0737B2" transform="translate(360,1068)"/>
<path d="M0 0 C0.33 0 0.66 0 1 0 C1 13.86 1 27.72 1 42 C1.66 42 2.32 42 3 42 C2.34 47.28 1.68 52.56 1 58 C1.66 58 2.32 58 3 58 C3.26252625 62.33168317 2.29243536 65.8803623 1 70 C0.67 70 0.34 70 0 70 C0 46.9 0 23.8 0 0 Z " fill="#0336B5" transform="translate(617,911)"/>
<path d="M0 0 C4.12498538 -0.02892385 8.24994485 -0.04677267 12.375 -0.0625 C14.1384375 -0.07506836 14.1384375 -0.07506836 15.9375 -0.08789062 C17.61972656 -0.09272461 17.61972656 -0.09272461 19.3359375 -0.09765625 C20.89127197 -0.10551147 20.89127197 -0.10551147 22.47802734 -0.11352539 C25 0 25 0 27 1 C27 1.66 27 2.32 27 3 C15.45 3 3.9 3 -8 3 C-8 2.67 -8 2.34 -8 2 C-5.36 2 -2.72 2 0 2 C0 1.34 0 0.68 0 0 Z " fill="#D4E1F3" transform="translate(696,1063)"/>
<path d="M0 0 C0.33 0 0.66 0 1 0 C2.21909828 8.51448959 2.11268452 16.98473477 2.0625 25.5625 C2.0574746 27.06314955 2.05291353 28.56380072 2.04882812 30.06445312 C2.03790576 33.70966977 2.02069856 37.35482422 2 41 C1.67 41 1.34 41 1 41 C-2.46907282 27.77415986 -1.50701998 13.48244658 0 0 Z " fill="#056EEB" transform="translate(945,383)"/>
<path d="M0 0 C0 8.25 0 16.5 0 25 C-3.63 25 -7.26 25 -11 25 C-11 24.67 -11 24.34 -11 24 C-7.7 24 -4.4 24 -1 24 C-1.14075205 21.06217531 -1.2873838 18.12484829 -1.4375 15.1875 C-1.47681641 14.35412109 -1.51613281 13.52074219 -1.55664062 12.66210938 C-1.59853516 11.85966797 -1.64042969 11.05722656 -1.68359375 10.23046875 C-1.72025146 9.49207764 -1.75690918 8.75368652 -1.79467773 7.99291992 C-1.94842141 5.792505 -1.94842141 5.792505 -3 3 C-5.10353495 2.9189794 -7.20795952 2.86080093 -9.3125 2.8125 C-10.48425781 2.77769531 -11.65601563 2.74289062 -12.86328125 2.70703125 C-15.99288464 2.71282601 -15.99288464 2.71282601 -17.91796875 4.51171875 C-18.45357422 5.24841797 -18.45357422 5.24841797 -19 6 C-20.32 5.34 -21.64 4.68 -23 4 C-14.9196604 -0.22381388 -9.12399101 -0.09123991 0 0 Z " fill="#202551" transform="translate(354,906)"/>
<path d="M0 0 C5.94 0 11.88 0 18 0 C18 0.33 18 0.66 18 1 C16.04235617 1.19456705 14.08384679 1.38044247 12.125 1.5625 C11.03445313 1.66691406 9.94390625 1.77132812 8.8203125 1.87890625 C6 2 6 2 4 1 C1.6825533 6.55374068 1.65603348 11.73049127 1.5859375 17.6484375 C1.56657135 18.66096588 1.5472052 19.67349426 1.5272522 20.71670532 C1.46769277 23.93605242 1.42116552 27.15543574 1.375 30.375 C1.33679849 32.56381728 1.2977455 34.75261988 1.2578125 36.94140625 C1.16201077 42.29414005 1.07689467 47.646963 1 53 C0.67 53 0.34 53 0 53 C0 35.51 0 18.02 0 0 Z " fill="#0D2361" transform="translate(569,864)"/>
<path d="M0 0 C5.28 0 10.56 0 16 0 C16 0.66 16 1.32 16 2 C8.38338169 2.9436678 0.87990665 3.13269763 -6.7890625 3.09765625 C-7.97349945 3.0962413 -9.1579364 3.09482635 -10.37826538 3.09336853 C-14.12720361 3.08781209 -17.8760801 3.07526782 -21.625 3.0625 C-24.18098872 3.05747937 -26.73697838 3.05291745 -29.29296875 3.04882812 C-35.52866658 3.03785696 -41.76432887 3.02116276 -48 3 C-48 2.67 -48 2.34 -48 2 C-32.16 1.67 -16.32 1.34 0 1 C0 0.67 0 0.34 0 0 Z " fill="#AABFE8" transform="translate(980,1069)"/>
<path d="M0 0 C3.44908996 13.00041601 5.48897462 25.58998917 6 39 C5.01 39.495 5.01 39.495 4 40 C3.92483154 39.4423999 3.84966309 38.8847998 3.7722168 38.31030273 C1.52841581 19.4173894 1.52841581 19.4173894 -3 1 C-1 0 -1 0 0 0 Z " fill="#2D88F1" transform="translate(940,340)"/>
<path d="M0 0 C7.73666719 -0.02319817 15.47333076 -0.04095318 23.21002483 -0.05181217 C26.80270811 -0.05702465 30.39536755 -0.06409257 33.98803711 -0.07543945 C37.45692491 -0.08632649 40.92578981 -0.09228916 44.39469337 -0.09487724 C46.35832602 -0.09761664 48.32194948 -0.10541944 50.28556824 -0.11329651 C52.08686943 -0.11340981 52.08686943 -0.11340981 53.92456055 -0.11352539 C54.97935104 -0.115746 56.03414154 -0.11796661 57.12089539 -0.12025452 C59.85647287 -0.00599485 62.33762934 0.38107618 65 1 C64.67 1.66 64.34 2.32 64 3 C62.741875 3.020625 61.48375 3.04125 60.1875 3.0625 C59.47980469 3.07410156 58.77210938 3.08570313 58.04296875 3.09765625 C56 3 56 3 53 2 C51.26722838 1.88446109 49.53056879 1.82354865 47.79418945 1.79467773 C46.73331619 1.77473251 45.67244293 1.75478729 44.579422 1.73423767 C43.43559555 1.71752518 42.2917691 1.70081268 41.11328125 1.68359375 C39.94113571 1.66281265 38.76899017 1.64203156 37.56132507 1.62062073 C33.81177714 1.55516182 30.06215837 1.49625704 26.3125 1.4375 C23.77277909 1.39431132 21.23306538 1.35069692 18.69335938 1.30664062 C12.46231478 1.19948414 6.23119949 1.0977108 0 1 C0 0.67 0 0.34 0 0 Z " fill="#003CB8" transform="translate(633,144)"/>
<path d="M0 0 C0.66 0 1.32 0 2 0 C1.8057138 7.50651213 -0.18628239 14.04306941 -2.65625 21.08203125 C-4.71572428 26.97195016 -6.34159566 32.98712617 -8 39 C-8.33 39 -8.66 39 -9 39 C-8.44627609 30.97100326 -6.31876116 23.68253697 -4 16 C-3.32582362 13.66873588 -2.66237732 11.33465727 -2 9 C-1.34 9 -0.68 9 0 9 C-0.185625 8.443125 -0.37125 7.88625 -0.5625 7.3125 C-1.07551165 4.600867 -0.6640724 2.65628961 0 0 Z " fill="#207BEB" transform="translate(939,474)"/>
<path d="M0 0 C0.66 0.99 1.32 1.98 2 3 C1.26953125 5.36328125 1.26953125 5.36328125 0 8 C-0.36738281 8.83917969 -0.73476563 9.67835938 -1.11328125 10.54296875 C-3.23382925 15.21922608 -5.38568512 19.87929891 -7.625 24.5 C-8.20121094 25.69109375 -8.20121094 25.69109375 -8.7890625 26.90625 C-9.9851445 28.97431436 -11.2334477 30.40703954 -13 32 C-13.66 31.67 -14.32 31.34 -15 31 C-14.41992188 30.01902344 -13.83984375 29.03804687 -13.2421875 28.02734375 C-7.95542968 18.94295989 -3.6150922 9.86707519 0 0 Z " fill="#1359C7" transform="translate(811,553)"/>
<path d="M0 0 C0.83694346 2.86492183 1.03731951 5.21705304 0.875 8.1875 C0.79498713 12.58820779 1.80518451 15.99685759 3.44140625 20.0546875 C4 22 4 22 3 25 C-1.54347785 19.43057554 -2.13754504 16.48696066 -2.0625 9.375 C-2.05798828 8.57320312 -2.05347656 7.77140625 -2.04882812 6.9453125 C-2.03703168 4.96350994 -2.01909605 2.98174567 -2 1 C-1.34 0.67 -0.68 0.34 0 0 Z " fill="#091141" transform="translate(343,798)"/>
<path d="M0 0 C1.65 0 3.3 0 5 0 C1.51858844 3.10552651 -2.29025472 4.10976915 -6.6875 5.3125 C-12.63344059 7.03220548 -17.4297497 9.05523288 -22.3984375 12.86328125 C-24 14 -24 14 -26 14 C-26 13.34 -26 12.68 -26 12 C-24.01310269 10.64721885 -22.01254782 9.31431695 -20 8 C-19.67 7.34 -19.34 6.68 -19 6 C-16.41796875 4.96484375 -16.41796875 4.96484375 -13.1875 3.9375 C-12.12917969 3.59589844 -11.07085938 3.25429688 -9.98046875 2.90234375 C-8.99691406 2.60457031 -8.01335938 2.30679688 -7 2 C-5.91138672 1.66162109 -5.91138672 1.66162109 -4.80078125 1.31640625 C-3 1 -3 1 0 2 C0 1.34 0 0.68 0 0 Z " fill="#091F61" transform="translate(624,677)"/>
<path d="M0 0 C0.33 0 0.66 0 1 0 C1 8.58 1 17.16 1 26 C-6.59 26 -14.18 26 -22 26 C-22 24.35 -22 22.7 -22 21 C-20 22 -20 22 -19 24 C-17.87980469 23.98839844 -16.75960937 23.97679687 -15.60546875 23.96484375 C-14.13281417 23.95546378 -12.66015778 23.9463638 -11.1875 23.9375 C-10.44951172 23.92912109 -9.71152344 23.92074219 -8.95117188 23.91210938 C-5.70077932 23.89740172 -3.10595105 23.96468298 0 25 C0 16.75 0 8.5 0 0 Z " fill="#0240C3" transform="translate(893,983)"/>
<path d="M0 0 C8.25 0 16.5 0 25 0 C25 0.33 25 0.66 25 1 C24.37432129 1.01981934 23.74864258 1.03963867 23.10400391 1.06005859 C20.27723481 1.15514226 17.45122185 1.26488746 14.625 1.375 C13.64015625 1.4059375 12.6553125 1.436875 11.640625 1.46875 C10.69960938 1.50742187 9.75859375 1.54609375 8.7890625 1.5859375 C7.48509521 1.63306885 7.48509521 1.63306885 6.15478516 1.68115234 C3.79038206 1.81229433 3.79038206 1.81229433 2 4 C1.62904292 6.42246595 1.62904292 6.42246595 1.5859375 9.2265625 C1.54726563 10.2578125 1.50859375 11.2890625 1.46875 12.3515625 C1.4378125 13.43179688 1.406875 14.51203125 1.375 15.625 C1.33632813 16.71296875 1.29765625 17.8009375 1.2578125 18.921875 C1.16333753 21.61441165 1.07777569 24.30693757 1 27 C0.67 27 0.34 27 0 27 C0 18.09 0 9.18 0 0 Z " fill="#0D63E5" transform="translate(870,861)"/>
<path d="M0 0 C2.05078125 0.03255208 4.1015625 0.06510417 6.15234375 0.09765625 C6.15234375 1.08765625 6.15234375 2.07765625 6.15234375 3.09765625 C12.09234375 3.09765625 18.03234375 3.09765625 24.15234375 3.09765625 C24.15234375 3.42765625 24.15234375 3.75765625 24.15234375 4.09765625 C12.10483851 4.20402515 0.15739992 4.24489711 -11.84765625 3.09765625 C-11.84765625 2.76765625 -11.84765625 2.43765625 -11.84765625 2.09765625 C-10.89052734 2.00677734 -10.89052734 2.00677734 -9.9140625 1.9140625 C-8.67462891 1.78837891 -8.67462891 1.78837891 -7.41015625 1.66015625 C-6.58644531 1.57894531 -5.76273438 1.49773437 -4.9140625 1.4140625 C-2.62032942 1.06284817 -2.26022767 0.11946235 0 0 Z " fill="#144DB5" transform="translate(841.84765625,1068.90234375)"/>
<path d="M0 0 C7.9579841 0.79993601 15.98743123 5.29892204 23 9 C22.67 9.99 22.34 10.98 22 12 C21.02160156 11.52949219 20.04320312 11.05898438 19.03515625 10.57421875 C12.12184869 7.28027772 5.35738983 4.19430925 -2 2 C-1.34 1.34 -0.68 0.68 0 0 Z " fill="#206BD2" transform="translate(728,261)"/>
<path d="M0 0 C0.33 0 0.66 0 1 0 C1.37387406 7.18669023 0.87612867 14.04660726 -0.3125 21.125 C-0.43020752 21.87128662 -0.54791504 22.61757324 -0.66918945 23.38647461 C-1.05078125 25.5078125 -1.05078125 25.5078125 -2 29 C-2.99 29.66 -3.98 30.32 -5 31 C-4.23316717 24.28415883 -3.1160389 17.65478858 -1.9375 11 C-1.75123047 9.93910156 -1.56496094 8.87820313 -1.37304688 7.78515625 C-0.91710462 5.18979262 -0.45938174 2.59475665 0 0 Z " fill="#1461D0" transform="translate(821,509)"/>
<path d="M0 0 C0.99 0 1.98 0 3 0 C1.86608348 3.40174957 1.16241187 3.88107942 -1.67578125 5.8828125 C-2.42150391 6.41003906 -3.16722656 6.93726563 -3.93554688 7.48046875 C-5.11213867 8.29451172 -5.11213867 8.29451172 -6.3125 9.125 C-7.08529297 9.67542969 -7.85808594 10.22585938 -8.65429688 10.79296875 C-14.98928892 15.22691847 -14.98928892 15.22691847 -19 16 C-16.58049296 12.37073944 -13.88482325 9.9138537 -9.9375 8 C-7.82496576 7.03399338 -7.82496576 7.03399338 -5.9375 4.9375 C-4 3 -4 3 -1 2 C-0.67 1.34 -0.34 0.68 0 0 Z " fill="#172F72" transform="translate(419,326)"/>
<path d="M0 0 C3.73015507 3.53244367 6.75318936 7.23189522 9.625 11.5 C10.0065625 12.05558594 10.388125 12.61117188 10.78125 13.18359375 C11.86962381 14.77862433 12.93533551 16.38904699 14 18 C14.60585938 18.8971875 15.21171875 19.794375 15.8359375 20.71875 C16.41214844 21.84796875 16.41214844 21.84796875 17 23 C16.67 23.99 16.34 24.98 16 26 C13 21.25 13 21.25 13 19 C12.01 18.67 11.02 18.34 10 18 C9.0348659 16.10301228 8.07793998 14.20090151 7.18359375 12.26953125 C5.53440682 9.10722892 3.402133 6.43532368 1.171875 3.6640625 C0 2 0 2 0 0 Z " fill="#187CEF" transform="translate(893,246)"/>
<path d="M0 0 C0 1.65 0 3.3 0 5 C-2.475 4.505 -2.475 4.505 -5 4 C-5.33 4.66 -5.66 5.32 -6 6 C-7.32796291 6.35412344 -8.66216607 6.68521554 -10 7 C-10.99 7.66 -11.98 8.32 -13 9 C-16.1875 9.125 -16.1875 9.125 -19 9 C-15.70409309 6.29670689 -12.24386481 4.58099915 -8.375 2.8125 C-7.22773438 2.28269531 -6.08046875 1.75289063 -4.8984375 1.20703125 C-2 0 -2 0 0 0 Z " fill="#243570" transform="translate(450,384)"/>
<path d="M0 0 C0.33 0 0.66 0 1 0 C1.0544207 2.68777802 1.09387266 5.37443212 1.125 8.0625 C1.14175781 8.81466797 1.15851562 9.56683594 1.17578125 10.34179688 C1.21865121 15.29327709 0.58399375 19.30414451 -1 24 C-1.33 24 -1.66 24 -2 24 C-2.33 21.03 -2.66 18.06 -3 15 C-2.34 15 -1.68 15 -1 15 C-1.01160156 14.08476562 -1.02320313 13.16953125 -1.03515625 12.2265625 C-1.04417969 11.03804688 -1.05320312 9.84953125 -1.0625 8.625 C-1.07410156 7.44164062 -1.08570313 6.25828125 -1.09765625 5.0390625 C-1 2 -1 2 0 0 Z " fill="#308AF1" transform="translate(946,425)"/>
<path d="M0 0 C2.97 0 5.94 0 9 0 C9 0.33 9 0.66 9 1 C7.35 1 5.7 1 4 1 C1.89176904 4.42587531 1.91385344 7.0372584 2 11 C1.67 11.66 1.34 12.32 1 13 C1.66 13 2.32 13 3 13 C2.67 14.65 2.34 16.3 2 18 C1.34 18 0.68 18 0 18 C0 12.06 0 6.12 0 0 Z " fill="#054BCA" transform="translate(617,865)"/>
<path d="M0 0 C2.64 0 5.28 0 8 0 C8 0.66 8 1.32 8 2 C9.98 2 11.96 2 14 2 C14 2.33 14 2.66 14 3 C8.65703984 4.42478938 1.84916061 5.24861692 -3.30859375 2.98828125 C-3.86675781 2.66214844 -4.42492187 2.33601562 -5 2 C-3.35 1.67 -1.7 1.34 0 1 C0 0.67 0 0.34 0 0 Z " fill="#CCCDDA" transform="translate(411,986)"/>
<path d="M0 0 C10.09759268 -0.2999285 19.37069489 -0.56326709 29 3 C29 3.33 29 3.66 29 4 C27.22950311 4.05410687 25.45853151 4.09284119 23.6875 4.125 C22.20830078 4.15980469 22.20830078 4.15980469 20.69921875 4.1953125 C18 4 18 4 15 2 C12.41114829 1.70008931 9.90850918 1.49134775 7.3125 1.375 C6.2596582 1.31699219 6.2596582 1.31699219 5.18554688 1.2578125 C3.45745345 1.1637666 1.72876325 1.0808032 0 1 C0 0.67 0 0.34 0 0 Z " fill="#4797F0" transform="translate(1054,905)"/>
<path d="M0 0 C2.20330318 3.30495477 3.04438371 6.12332472 4.125 9.9375 C4.47820313 11.16339844 4.83140625 12.38929688 5.1953125 13.65234375 C6 17 6 17 6 21 C5.34 21 4.68 21 4 21 C3.896875 19.96875 3.79375 18.9375 3.6875 17.875 C3.00494613 14.0278782 1.76080952 11.4450621 0 8 C0 5.33333333 0 2.66666667 0 0 Z " fill="#338CF0" transform="translate(933,319)"/>
<path d="M0 0 C0.89434899 2.9633653 1.02088741 5.18989735 0.625 8.25 C0.0715206 13.03723744 -0.27430556 17.81608758 -0.5625 22.625 C-0.60616699 23.34848633 -0.64983398 24.07197266 -0.69482422 24.81738281 C-0.79807307 26.54483148 -0.89925925 28.27240325 -1 30 C-1.33 30 -1.66 30 -2 30 C-2.05850924 26.31256766 -2.09376673 22.6252563 -2.125 18.9375 C-2.14175781 17.89916016 -2.15851563 16.86082031 -2.17578125 15.79101562 C-2.21183286 10.11288716 -1.92971166 5.35608946 0 0 Z " fill="#333C6D" transform="translate(485,939)"/>
<path d="M0 0 C0.83595703 0.00451172 1.67191406 0.00902344 2.53320312 0.01367188 C4.58466649 0.02539452 6.63609273 0.04332797 8.6875 0.0625 C8.6875 0.3925 8.6875 0.7225 8.6875 1.0625 C7.71167969 1.11148438 6.73585938 1.16046875 5.73046875 1.2109375 C4.45816406 1.28570313 3.18585937 1.36046875 1.875 1.4375 C-0.02185547 1.54191406 -0.02185547 1.54191406 -1.95703125 1.6484375 C-5.44005234 1.82352939 -5.44005234 1.82352939 -8.3125 4.0625 C-11.05240408 4.03106707 -13.59667854 3.50771663 -16.3125 3.0625 C-12.10201999 -1.14798001 -5.59268572 -0.05738352 0 0 Z " fill="#5196EB" transform="translate(955.3125,904.9375)"/>
<path d="M0 0 C1.32 0.66 2.64 1.32 4 2 C1.90421865 3.5337173 -0.20022537 5.05180837 -2.3125 6.5625 C-2.90740234 7.00013672 -3.50230469 7.43777344 -4.11523438 7.88867188 C-5.68970073 9.00575136 -7.34206919 10.01102259 -9 11 C-9.99 10.67 -10.98 10.34 -12 10 C-11.01 9.67 -10.02 9.34 -9 9 C-9 8.34 -9 7.68 -9 7 C-6 5 -6 5 -3 5 C-2.690625 4.360625 -2.38125 3.72125 -2.0625 3.0625 C-1 1 -1 1 0 0 Z " fill="#163177" transform="translate(435,314)"/>
<path d="M0 0 C0.33 0.66 0.66 1.32 1 2 C1.66 2 2.32 2 3 2 C3.69640673 4.12209776 4.38188357 6.24778527 5.0625 8.375 C5.44535156 9.55835938 5.82820312 10.74171875 6.22265625 11.9609375 C7 15 7 15 6 17 C4 16 4 16 2.9296875 13.1640625 C2.58164062 11.99617187 2.23359375 10.82828125 1.875 9.625 C1.52179687 8.46226562 1.16859375 7.29953125 0.8046875 6.1015625 C0 3 0 3 0 0 Z " fill="#25468E" transform="translate(553,539)"/>
<path d="M0 0 C0.66 0 1.32 0 2 0 C1.38273804 5.67355671 0.72054048 11.33861055 0 17 C-2 15 -2 15 -2.01171875 12.03125 C-1.90472656 10.8659375 -1.79773438 9.700625 -1.6875 8.5 C-1.53861328 6.75203125 -1.53861328 6.75203125 -1.38671875 4.96875 C-1 2 -1 2 0 0 Z " fill="#1879F2" transform="translate(942,457)"/>
<path d="M0 0 C0 0.33 0 0.66 0 1 C-0.60328125 1.10957031 -1.2065625 1.21914062 -1.828125 1.33203125 C-6.28734977 2.21668391 -9.50866931 2.927629 -13 6 C-13.66 6 -14.32 6 -15 6 C-11.82230355 -1.67943309 -7.35403372 -1.30424102 0 0 Z " fill="#0F1E5A" transform="translate(359,145)"/>
<path d="M0 0 C0.66 0.33 1.32 0.66 2 1 C1.2575 1.721875 0.515 2.44375 -0.25 3.1875 C-2.99559988 5.88362128 -2.99559988 5.88362128 -5.0625 8.6875 C-6.96214367 10.95481664 -8.28265723 11.93247248 -11 13 C-9.63422544 8.71506993 -7.79318655 6.56854295 -4.375 3.6875 C-3.55773437 2.99011719 -2.74046875 2.29273438 -1.8984375 1.57421875 C-0.95871094 0.79498047 -0.95871094 0.79498047 0 0 Z " fill="#DADDE9" transform="translate(523,931)"/>
<path d="M0 0 C-1.51908323 3.80199928 -3.77448786 5.77187204 -6.9375 8.3125 C-7.81277344 9.03050781 -8.68804688 9.74851562 -9.58984375 10.48828125 C-10.38519531 10.98714844 -11.18054688 11.48601563 -12 12 C-12.99 11.67 -13.98 11.34 -15 11 C-12.87996003 9.16064138 -10.75442773 7.32843267 -8.625 5.5 C-8.02171875 4.97535156 -7.4184375 4.45070313 -6.796875 3.91015625 C-2.2265625 0 -2.2265625 0 0 0 Z " fill="#0E4CB2" transform="translate(778,608)"/>
<path d="M0 0 C0.99 0 1.98 0 3 0 C1.61219205 3.89006773 -0.2152227 6.96558708 -2.625 10.3125 C-3.25664063 11.19550781 -3.88828125 12.07851563 -4.5390625 12.98828125 C-5.02117188 13.65214844 -5.50328125 14.31601562 -6 15 C-6.33 14.01 -6.66 13.02 -7 12 C-6.34 12 -5.68 12 -5 12 C-4.7834375 11.071875 -4.7834375 11.071875 -4.5625 10.125 C-4 8 -4 8 -3 6 C-2.34 6 -1.68 6 -1 6 C-1.020625 5.195625 -1.04125 4.39125 -1.0625 3.5625 C-1 1 -1 1 0 0 Z " fill="#1067D7" transform="translate(903,561)"/>
<path d="M0 0 C0.50493003 2.01972011 1.00950643 4.03921402 1.5 6.0625 C1.92981688 7.7280404 2.45605447 9.36816342 3 11 C-1.67692308 9.52307692 -1.67692308 9.52307692 -3.3125 6.875 C-3.539375 6.25625 -3.76625 5.6375 -4 5 C-2.68 3.35 -1.36 1.7 0 0 Z " fill="#1957CC" transform="translate(914,990)"/>
<path d="M0 0 C3.35882075 1.41231461 5.13329047 3.03368978 7.3125 5.9375 C8.11107422 6.97197266 8.11107422 6.97197266 8.92578125 8.02734375 C9.28027344 8.67832031 9.63476562 9.32929687 10 10 C9.67 10.99 9.34 11.98 9 13 C6.204559 11.6022795 5.47112063 9.37337262 4.01953125 6.71484375 C2.9065693 4.84285028 1.57241848 3.49379755 0 2 C0 1.34 0 0.68 0 0 Z " fill="#1B7DEE" transform="translate(1096,917)"/>
<path d="M0 0 C4.95 0 9.9 0 15 0 C15 0.33 15 0.66 15 1 C12.36 1.33 9.72 1.66 7 2 C7 2.66 7 3.32 7 4 C4.69 3.34 2.38 2.68 0 2 C0 1.34 0 0.68 0 0 Z " fill="#0448C7" transform="translate(948,992)"/>
<path d="M0 0 C1.32 0.33 2.64 0.66 4 1 C3.01 1.33 2.02 1.66 1 2 C1 2.66 1 3.32 1 4 C0.34 4 -0.32 4 -1 4 C-1.2475 4.804375 -1.495 5.60875 -1.75 6.4375 C-3 9 -3 9 -5.125 9.8125 C-5.74375 9.874375 -6.3625 9.93625 -7 10 C-4.93992341 6.39486597 -2.6486859 3.19668988 0 0 Z " fill="#1F63D7" transform="translate(922,980)"/>
<path d="M0 0 C0.66 0.33 1.32 0.66 2 1 C-3.0940919 8.68490153 -3.0940919 8.68490153 -6.875 10 C-7.57625 10 -8.2775 10 -9 10 C-8.06409496 8.8944811 -7.12620142 7.79064547 -6.1875 6.6875 C-5.66542969 6.07261719 -5.14335937 5.45773437 -4.60546875 4.82421875 C-3.12827531 3.14575321 -1.59960869 1.56117966 0 0 Z " fill="#1E2A64" transform="translate(502,915)"/>
<path d="M0 0 C3.05001831 3.66002197 7 9.07851471 7 14 C4 13 4 13 2.578125 10.8203125 C2.13984375 9.93085937 1.7015625 9.04140625 1.25 8.125 C0.80140625 7.24070312 0.3528125 6.35640625 -0.109375 5.4453125 C-1 3 -1 3 0 0 Z " fill="#27458F" transform="translate(562,562)"/>
<path d="M0 0 C4.29 0.33 8.58 0.66 13 1 C9.68629 3.20914 8.6553979 3.22481553 4.8125 3.125 C3.91144531 3.10695313 3.01039062 3.08890625 2.08203125 3.0703125 C1.39496094 3.04710937 0.70789062 3.02390625 0 3 C0 2.01 0 1.02 0 0 Z " fill="#1273EC" transform="translate(1058,924)"/>
<path d="M0 0 C0.99 0.33 1.98 0.66 3 1 C3 2.32 3 3.64 3 5 C-0.96 5 -4.92 5 -9 5 C-9 4.67 -9 4.34 -9 4 C-8.2575 3.896875 -7.515 3.79375 -6.75 3.6875 C-3.94274501 3.17884805 -3.94274501 3.17884805 -1.875 1.375 C-1.25625 0.92125 -0.6375 0.4675 0 0 Z " fill="#060C33" transform="translate(350,925)"/>
<path d="M0 0 C2.3828125 0.0234375 2.3828125 0.0234375 5.125 0.375 C6.03507813 0.48585938 6.94515625 0.59671875 7.8828125 0.7109375 C8.93082031 0.85402344 8.93082031 0.85402344 10 1 C10 2.32 10 3.64 10 5 C4.06 3.515 4.06 3.515 -2 2 C-1.34 1.34 -0.68 0.68 0 0 Z " fill="#1054C9" transform="translate(685,886)"/>
<path d="M0 0 C3.3 0 6.6 0 10 0 C10 1.32 10 2.64 10 4 C10.66 4.33 11.32 4.66 12 5 C8.06693147 4.45119974 4.58646443 3.74199701 1 2 C0.67 1.34 0.34 0.68 0 0 Z " fill="#2368D3" transform="translate(933,963)"/>
<path d="M0 0 C0.66 0.66 1.32 1.32 2 2 C-0.49825283 5.21203935 -3.0702992 8.17493137 -6 11 C-6.33 10.34 -6.66 9.68 -7 9 C-2.85714286 2.57142857 -2.85714286 2.57142857 0 0 Z " fill="#1C6FE3" transform="translate(922,916)"/>
<path d="M0 0 C9.41002278 -0.18451025 9.41002278 -0.18451025 14 1 C13.67 1.66 13.34 2.32 13 3 C8.07872966 3.16682272 4.49656104 3.24828052 0 1 C0 0.67 0 0.34 0 0 Z " fill="#0D56C5" transform="translate(684,144)"/>
<path d="M0 0 C6.6 0 13.2 0 20 0 C20 0.33 20 0.66 20 1 C14.39 1 8.78 1 3 1 C3 1.66 3 2.32 3 3 C2.34 3 1.68 3 1 3 C0.67 3.66 0.34 4.32 0 5 C0 3.35 0 1.7 0 0 Z " fill="#0255D8" transform="translate(821,909)"/>
<path d="M0 0 C0.3396019 1.87387477 0.67138691 3.74916697 1 5.625 C1.185625 6.66914063 1.37125 7.71328125 1.5625 8.7890625 C1.98715797 11.90574865 2.07545206 14.85930812 2 18 C-0.07857836 14.88213246 -0.48138124 13.13321309 -1.0625 9.5 C-1.54658193 6.52349625 -2.04448148 3.86655555 -3 1 C-1 0 -1 0 0 0 Z " fill="#0D73EF" transform="translate(940,340)"/>
<path d="M0 0 C0.66 0.33 1.32 0.66 2 1 C-1.34003602 5.32239956 -4.32751069 8.17477391 -9 11 C-7.59928507 5.70841026 -4.14512755 3.22521956 0 0 Z " fill="#D7D8E4" transform="translate(331,934)"/>
<path d="M0 0 C0.89332031 0.30164063 1.78664063 0.60328125 2.70703125 0.9140625 C3.60808594 1.21054687 4.50914062 1.50703125 5.4375 1.8125 C6.46810547 2.17214844 6.46810547 2.17214844 7.51953125 2.5390625 C7.51953125 2.8690625 7.51953125 3.1990625 7.51953125 3.5390625 C3.22953125 3.5390625 -1.06046875 3.5390625 -5.48046875 3.5390625 C-5.48046875 2.8790625 -5.48046875 2.2190625 -5.48046875 1.5390625 C-2.48046875 -0.4609375 -2.48046875 -0.4609375 0 0 Z " fill="#042C7C" transform="translate(704.48046875,674.4609375)"/>
<path d="M0 0 C0.33 0.99 0.66 1.98 1 3 C-0.62339805 4.70884005 -2.29319053 6.37446717 -4 8 C-4.66 8 -5.32 8 -6 8 C-6.33 7.01 -6.66 6.02 -7 5 C-5.68 4.01 -4.36 3.02 -3 2 C-2.34 2.33 -1.68 2.66 -1 3 C-0.67 2.01 -0.34 1.02 0 0 Z " fill="#162458" transform="translate(564,996)"/>
<path d="M0 0 C0.93513592 2.52486699 1.03571099 3.85715603 0.375 6.5 C-1.27680002 9.50327276 -3.227521 11.03008071 -6 13 C-6.66 12.67 -7.32 12.34 -8 12 C-7.59007812 11.55269531 -7.18015625 11.10539063 -6.7578125 10.64453125 C-3.74359926 7.26255515 -1.33949455 4.420332 0 0 Z " fill="#242F6A" transform="translate(565,970)"/>
<path d="M0 0 C0.66 0 1.32 0 2 0 C1.35550393 3.01217112 0.34977818 5.51655836 -1.0625 8.25 C-1.42472656 8.95640625 -1.78695312 9.6628125 -2.16015625 10.390625 C-2.43730469 10.92171875 -2.71445312 11.4528125 -3 12 C-3.66 12 -4.32 12 -5 12 C-4.54738642 10.56068883 -4.08767021 9.12361001 -3.625 7.6875 C-3.24214844 6.48673828 -3.24214844 6.48673828 -2.8515625 5.26171875 C-2 3 -2 3 0 0 Z " fill="#176FE5" transform="translate(1017,929)"/>
<path d="M0 0 C0.66 0 1.32 0 2 0 C1.52470993 4.27761063 -0.7668306 6.34161627 -4 9 C-7.3125 9.8125 -7.3125 9.8125 -10 10 C-9.01 9.34 -8.02 8.68 -7 8 C-2.51560302 4.72669247 -2.51560302 4.72669247 0 0 Z " fill="#15245E" transform="translate(576,816)"/>
<path d="M0 0 C0.99 0.33 1.98 0.66 3 1 C1.90398831 2.00893131 0.79786082 3.00688225 -0.3125 4 C-1.23482422 4.8353125 -1.23482422 4.8353125 -2.17578125 5.6875 C-4 7 -4 7 -7 7 C-7 6.01 -7 5.02 -7 4 C-6.01 4 -5.02 4 -4 4 C-4 3.34 -4 2.68 -4 2 C-2.68 2 -1.36 2 0 2 C0 1.34 0 0.68 0 0 Z " fill="#102D75" transform="translate(458,298)"/>
<path d="M0 0 C0.33 0 0.66 0 1 0 C1.33 5.94 1.66 11.88 2 18 C1.01 18 0.02 18 -1 18 C-0.505 9.09 -0.505 9.09 0 0 Z " fill="#4D598C" transform="translate(567,952)"/>
<path d="M0 0 C1.4589426 0.47730838 2.91713496 0.95691042 4.375 1.4375 C5.18710938 1.70433594 5.99921875 1.97117187 6.8359375 2.24609375 C9 3 9 3 11 4 C11 4.66 11 5.32 11 6 C9.53815942 5.77139942 8.08044581 5.51629608 6.625 5.25 C5.40683594 5.04117188 5.40683594 5.04117188 4.1640625 4.828125 C2 4 2 4 0.7109375 1.921875 C0.47632813 1.28765625 0.24171875 0.6534375 0 0 Z " fill="#0657D4" transform="translate(1046,986)"/>
<path d="M0 0 C-1.32 0.33 -2.64 0.66 -4 1 C-4 1.66 -4 2.32 -4 3 C-6.5 4.625 -6.5 4.625 -9 6 C-9 5.34 -9 4.68 -9 4 C-9.99 3.67 -10.98 3.34 -12 3 C-10.3789897 2.30314502 -8.75303934 1.61777139 -7.125 0.9375 C-6.22007812 0.55464844 -5.31515625 0.17179688 -4.3828125 -0.22265625 C-2 -1 -2 -1 0 0 Z " fill="#20244D" transform="translate(239,938)"/>
<path d="M0 0 C0.66 0 1.32 0 2 0 C6 6.625 6 6.625 6 10 C2.46413986 6.82679218 0.41421969 4.83256305 0 0 Z " fill="#0E45BB" transform="translate(755,993)"/>
<path d="M0 0 C0.66 0.33 1.32 0.66 2 1 C-0.97 4.3 -3.94 7.6 -7 11 C-7.66 10.67 -8.32 10.34 -9 10 C-6.03 6.7 -3.06 3.4 0 0 Z " fill="#DCEBFA" transform="translate(888,587)"/>
<path d="M0 0 C0 1.65 0 3.3 0 5 C-1.65 4.67 -3.3 4.34 -5 4 C-5.33 4.66 -5.66 5.32 -6 6 C-6.66 5.01 -7.32 4.02 -8 3 C-2.25 0 -2.25 0 0 0 Z " fill="#192E69" transform="translate(450,384)"/>
<path d="M0 0 C3 1 3 1 4.6875 3.25 C6.06511203 6.1364252 6.26985151 7.85173236 6 11 C3.13546142 7.58983503 1.65296434 4.09305456 0 0 Z " fill="#144DC7" transform="translate(581,1080)"/>
<path d="M0 0 C0.66 0.66 1.32 1.32 2 2 C-0.97 4.97 -3.94 7.94 -7 11 C-7.66 10.67 -8.32 10.34 -9 10 C-8.27683594 9.29423828 -8.27683594 9.29423828 -7.5390625 8.57421875 C-6.90742187 7.95160156 -6.27578125 7.32898438 -5.625 6.6875 C-4.68527344 5.76517578 -4.68527344 5.76517578 -3.7265625 4.82421875 C-1.81913393 2.91187472 -1.81913393 2.91187472 0 0 Z " fill="#E4F0FB" transform="translate(876,600)"/>
<path d="M0 0 C0.33 0 0.66 0 1 0 C1.08086147 1.79093191 1.13912702 3.58289628 1.1875 5.375 C1.22230469 6.37273438 1.25710938 7.37046875 1.29296875 8.3984375 C1.19628906 9.25695312 1.09960938 10.11546875 1 11 C0.01 11.66 -0.98 12.32 -2 13 C-1.48041715 8.62065881 -0.94324258 4.31196609 0 0 Z " fill="#266CD2" transform="translate(818,527)"/>
<path d="M0 0 C2.64465038 3.1254959 3.84414715 6.08788267 5 10 C4.01 10 3.02 10 2 10 C-1.125 3.375 -1.125 3.375 0 0 Z " fill="#368FF2" transform="translate(919,286)"/>
<path d="M0 0 C1.32 0.33 2.64 0.66 4 1 C4 1.66 4 2.32 4 3 C2.1875 4.6875 2.1875 4.6875 0 6 C-0.99 5.67 -1.98 5.34 -3 5 C-2.67 4.34 -2.34 3.68 -2 3 C-1.34 3 -0.68 3 0 3 C0 2.01 0 1.02 0 0 Z " fill="#2071E0" transform="translate(1104,995)"/>
<path d="M0 0 C4.87362847 0.45336079 7.39042389 1.7089159 11 5 C6.1948447 5.56531239 3.75696103 3.88324916 0 1 C0 0.67 0 0.34 0 0 Z " fill="#074ECC" transform="translate(926,984)"/>
<path d="M0 0 C0.99 0.33 1.98 0.66 3 1 C0.19195732 3.96404505 -2.18315774 6.44499019 -6 8 C-5.67 7.01 -5.34 6.02 -5 5 C-4.34 5 -3.68 5 -3 5 C-3 4.34 -3 3.68 -3 3 C-1.5 1.375 -1.5 1.375 0 0 Z " fill="#103383" transform="translate(479,282)"/>
<path d="M0 0 C-1 3 -1 3 -3 4 C-5.3329866 4.04022391 -7.66706666 4.04320247 -10 4 C-9.1028125 3.566875 -9.1028125 3.566875 -8.1875 3.125 C-2.11111111 0 -2.11111111 0 0 0 Z " fill="#172561" transform="translate(556,985)"/>
<path d="M0 0 C0.33 0.66 0.66 1.32 1 2 C-1.31 4.97 -3.62 7.94 -6 11 C-6 7.39426104 -5.18292538 6.58663434 -3 3.8125 C-2.443125 3.09707031 -1.88625 2.38164063 -1.3125 1.64453125 C-0.879375 1.10183594 -0.44625 0.55914063 0 0 Z " fill="#E6EAF3" transform="translate(593,697)"/>
<path d="M0 0 C1.17539996 0.92652701 2.34010577 1.86663387 3.5 2.8125 C4.1496875 3.33457031 4.799375 3.85664062 5.46875 4.39453125 C7 6 7 6 7 9 C6.34 9 5.68 9 5 9 C5 8.34 5 7.68 5 7 C4.34 6.67 3.68 6.34 3 6 C0 2.42307692 0 2.42307692 0 0 Z " fill="#14317B" transform="translate(581,595)"/>
<path d="M0 0 C1 3 1 3 -0.3125 5.6875 C-0.869375 6.450625 -1.42625 7.21375 -2 8 C-2.66 8 -3.32 8 -4 8 C-3.40072174 4.64404172 -2.15377564 2.62198774 0 0 Z " fill="#0F51BD" transform="translate(795,586)"/>
<path d="M0 0 C0.99 0 1.98 0 3 0 C3 2.64 3 5.28 3 8 C2.01 8.495 2.01 8.495 1 9 C0.67 6.03 0.34 3.06 0 0 Z " fill="#1779ED" transform="translate(943,440)"/>
<path d="M0 0 C0.12375 0.639375 0.2475 1.27875 0.375 1.9375 C0.58125 2.618125 0.7875 3.29875 1 4 C1.66 4.33 2.32 4.66 3 5 C2.67 5.99 2.34 6.98 2 8 C1.01 8 0.02 8 -1 8 C-1.04241723 5.66705225 -1.04092937 3.33297433 -1 1 C-0.67 0.67 -0.34 0.34 0 0 Z " fill="#0A349E" transform="translate(619,1000)"/>
<path d="M0 0 C0.33 0.66 0.66 1.32 1 2 C-0.51109761 4.3422013 -1.46097908 5.77132446 -4.0625 6.875 C-4.701875 6.91625 -5.34125 6.9575 -6 7 C-6.66 6.34 -7.32 5.68 -8 5 C-7.05125 4.54625 -6.1025 4.0925 -5.125 3.625 C-1.99686321 2.19761746 -1.99686321 2.19761746 0 0 Z " fill="#1B5FCF" transform="translate(972,985)"/>
<path d="M0 0 C-1.39332574 3.36720387 -2.9789286 4.9859524 -6 7 C-6.66 6.34 -7.32 5.68 -8 5 C-2.25 0 -2.25 0 0 0 Z " fill="#142059" transform="translate(440,979)"/>
<path d="M0 0 C0.66 0.33 1.32 0.66 2 1 C0.515 3.475 0.515 3.475 -1 6 C-2.32 5.67 -3.64 5.34 -5 5 C-3.35 3.35 -1.7 1.7 0 0 Z " fill="#1C2555" transform="translate(378,918)"/>
<path d="M0 0 C-3.01322906 2.00881937 -5.52662474 3.03927918 -9 4 C-9.66 3.67 -10.32 3.34 -11 3 C-7.16674383 0.29417212 -4.67461851 -0.32613618 0 0 Z " fill="#0F2162" transform="translate(435,393)"/>
<path d="M0 0 C2.29633824 3.44450737 2.54016485 5.93812283 3 10 C1.2925002 8.71937515 -0.37373596 7.38232443 -2 6 C-2 5.34 -2 4.68 -2 4 C-1.34 4 -0.68 4 0 4 C0 2.68 0 1.36 0 0 Z " fill="#1C58CE" transform="translate(627,1046)"/>
<path d="M0 0 C0.33 0 0.66 0 1 0 C1.125 5.75 1.125 5.75 0 8 C-0.99 8 -1.98 8 -3 8 C-1.125 2.25 -1.125 2.25 0 0 Z " fill="#1B2359" transform="translate(367,931)"/>
<path d="M0 0 C3.36720387 1.39332574 4.9859524 2.9789286 7 6 C4 6 4 6 1.8125 4.125 C0 2 0 2 0 0 Z " fill="#233269" transform="translate(558,914)"/>
<path d="M0 0 C0.66 0.99 1.32 1.98 2 3 C0.98819642 6.77126791 0.32378142 7.78414572 -3 10 C-2.01 6.7 -1.02 3.4 0 0 Z " fill="#2467CE" transform="translate(811,553)"/>
<path d="M0 0 C0.99 0 1.98 0 3 0 C2.75 1.875 2.75 1.875 2 4 C-0.0625 5.25 -0.0625 5.25 -2 6 C-1.34 4.02 -0.68 2.04 0 0 Z " fill="#1A52C2" transform="translate(718,947)"/>
<path d="M0 0 C0.66 0.99 1.32 1.98 2 3 C0.68 4.65 -0.64 6.3 -2 8 C-2.6875 6.25 -2.6875 6.25 -3 4 C-1.5625 1.75 -1.5625 1.75 0 0 Z " fill="#0E164A" transform="translate(322,939)"/>
<path d="M0 0 C0.66 0.33 1.32 0.66 2 1 C0.12050295 4.57104439 -1.17053157 6.54744301 -5 8 C-3.62845496 5.04590299 -2.01136276 2.55991624 0 0 Z " fill="#DBDCE7" transform="translate(395,935)"/>
<path d="M0 0 C0.66 0.66 1.32 1.32 2 2 C-0.97 4.475 -0.97 4.475 -4 7 C-4 4 -4 4 -2 1.8125 C-1.34 1.214375 -0.68 0.61625 0 0 Z " fill="#0C1448" transform="translate(327,913)"/>
<path d="M0 0 C1.65 0 3.3 0 5 0 C1.79663178 2.83374881 -0.78087253 3.5205537 -5 4 C-4.67 3.01 -4.34 2.02 -4 1 C-2.02 1.495 -2.02 1.495 0 2 C0 1.34 0 0.68 0 0 Z " fill="#0E2569" transform="translate(624,677)"/>
<path d="M0 0 C0.66 0.33 1.32 0.66 2 1 C-1.75 4 -1.75 4 -4 4 C-4.33 4.99 -4.66 5.98 -5 7 C-5.99 6.34 -6.98 5.68 -8 5 C-6.71475739 4.13619741 -5.42157581 3.28419631 -4.125 2.4375 C-3.04605469 1.72400391 -3.04605469 1.72400391 -1.9453125 0.99609375 C-1.30335938 0.66738281 -0.66140625 0.33867188 0 0 Z " fill="#1C53B2" transform="translate(761,620)"/>
<path d="M0 0 C1.10191901 4.40767604 0.58706842 5.8922935 -1 10 C-1.66 9.67 -2.32 9.34 -3 9 C-2.01 6.03 -1.02 3.06 0 0 Z " fill="#1472E5" transform="translate(929,510)"/>
</svg>
